<svg width="236" height="103" viewBox="0 0 236 103" fill="none" xmlns="http://www.w3.org/2000/svg">
<path fill-rule="evenodd" clip-rule="evenodd" d="M14 26H13V50V51H14H33V50H14V26ZM40 62H39V86V87H40H59V86H40V62Z" fill="white"/>
<g filter="url(#filter0_d_3063_15724)">
<rect x="3" y="2" width="176" height="24" rx="3" fill="white"/>
</g>
<path d="M140.696 17.0824L141.067 15.9686H142.76L143.134 17.0824H144.005L142.417 12.5657H141.41L139.825 17.0824H140.696ZM141.287 15.3114L141.896 13.492H141.931L142.54 15.3114H141.287Z" fill="#949FB1"/>
<path d="M146.401 12.354H145.704L144.253 17.7616H144.95L146.401 12.354Z" fill="#949FB1"/>
<path d="M146.944 17.0824H148.767C149.799 17.0824 150.304 16.5553 150.304 15.8518C150.304 15.1681 149.821 14.7667 149.341 14.7424V14.6983C149.781 14.5947 150.129 14.2859 150.129 13.7368C150.129 13.0641 149.645 12.5657 148.668 12.5657H146.944V17.0824ZM147.76 16.3987V15.0755H148.66C149.163 15.0755 149.475 15.3842 149.475 15.7878C149.475 16.1473 149.229 16.3987 148.638 16.3987H147.76ZM147.76 14.4866V13.2406H148.585C149.064 13.2406 149.313 13.4942 149.313 13.8426C149.313 14.2396 148.992 14.4866 148.567 14.4866H147.76Z" fill="#949FB1"/>
<path d="M152.352 13.2516H153.744V17.0824H154.553V13.2516H155.945V12.5657H152.352V13.2516Z" fill="#949FB1"/>
<path d="M157.608 17.1485C158.396 17.1485 158.937 16.7626 159.077 16.1737L158.334 16.0899C158.226 16.3766 157.962 16.5266 157.619 16.5266C157.105 16.5266 156.764 16.187 156.757 15.607H159.11V15.3622C159.11 14.1735 158.398 13.6508 157.567 13.6508C156.599 13.6508 155.968 14.3631 155.968 15.4085C155.968 16.4715 156.59 17.1485 157.608 17.1485ZM156.76 15.0688C156.784 14.6366 157.103 14.2727 157.578 14.2727C158.035 14.2727 158.343 14.6079 158.347 15.0688H156.76Z" fill="#949FB1"/>
<path d="M162.453 14.5903C162.343 14.0169 161.886 13.6508 161.094 13.6508C160.281 13.6508 159.727 14.0522 159.729 14.6785C159.727 15.1725 160.03 15.4989 160.679 15.6334L161.255 15.7547C161.565 15.8231 161.71 15.9488 161.71 16.1407C161.71 16.3722 161.459 16.5465 161.081 16.5465C160.716 16.5465 160.479 16.3877 160.41 16.0833L159.634 16.1583C159.733 16.7802 160.254 17.1485 161.083 17.1485C161.928 17.1485 162.524 16.7097 162.526 16.0679C162.524 15.5849 162.214 15.2894 161.576 15.1504L161 15.0269C160.657 14.9497 160.52 14.8307 160.523 14.6344C160.52 14.405 160.773 14.2462 161.105 14.2462C161.472 14.2462 161.666 14.4469 161.728 14.6697L162.453 14.5903Z" fill="#949FB1"/>
<path d="M164.869 13.6949H164.203V12.8833H163.406V13.6949H162.927V14.3124H163.406V16.1958C163.402 16.8332 163.864 17.1463 164.462 17.1287C164.688 17.1221 164.845 17.078 164.93 17.0493L164.796 16.4252C164.752 16.4362 164.662 16.456 164.563 16.456C164.363 16.456 164.203 16.3855 164.203 16.0635V14.3124H164.869V13.6949Z" fill="#949FB1"/>
<path d="M167.922 12.5657H167.106V17.0824H167.922V12.5657Z" fill="#949FB1"/>
<path d="M170.456 13.6949H169.79V12.8833H168.994V13.6949H168.515V14.3124H168.994V16.1958C168.99 16.8332 169.451 17.1463 170.05 17.1287C170.276 17.1221 170.432 17.078 170.518 17.0493L170.384 16.4252C170.34 16.4362 170.25 16.456 170.151 16.456C169.951 16.456 169.79 16.3855 169.79 16.0635V14.3124H170.456V13.6949Z" fill="#949FB1"/>
<path fill-rule="evenodd" clip-rule="evenodd" d="M12.4816 11.1797C12.5481 11.0478 12.6848 10.9563 12.8408 10.9563H19.2743C19.4303 10.9563 19.567 11.0478 19.6335 11.1797L16.0575 13.6902L12.4816 11.1797ZM11.6346 11.3686V16.1987C11.6346 16.865 12.1765 17.4085 12.8408 17.4085H19.2743C19.9387 17.4085 20.4806 16.865 20.4806 16.1987V11.3596C20.4806 10.6933 19.9387 10.1498 19.2743 10.1498H12.8408C12.1805 10.1498 11.6411 10.6868 11.6346 11.3476C11.6346 11.3516 11.6346 11.3556 11.6346 11.3596V11.3686ZM12.4388 12.1342L15.8269 14.5128C15.9654 14.61 16.1496 14.61 16.2881 14.5128L19.6764 12.134V16.1987C19.6764 16.4196 19.4945 16.602 19.2743 16.602H12.8408C12.6206 16.602 12.4388 16.4196 12.4388 16.1987V12.1342Z" fill="#02C797"/>
<path d="M32.0067 12.2029C33.3788 12.2029 34.1925 11.3516 34.1925 9.94019C34.1925 8.53315 33.3788 7.68628 32.0375 7.68628H30.4806V12.2029H32.0067ZM31.2964 11.495V8.39421H31.9913C32.9061 8.39421 33.3832 8.90586 33.3832 9.94019C33.3832 10.9789 32.9061 11.495 31.9671 11.495H31.2964Z" fill="#1991EB"/>
<path d="M35.9044 12.2713C36.4343 12.2713 36.751 12.0221 36.8961 11.7376H36.9225V12.2029H37.6877V9.93578C37.6877 9.04039 36.9599 8.77133 36.3156 8.77133C35.6053 8.77133 35.06 9.08891 34.884 9.70642L35.6273 9.81228C35.7064 9.58071 35.9307 9.38223 36.32 9.38223C36.6894 9.38223 36.8917 9.57189 36.8917 9.9049V9.91814C36.8917 10.1475 36.652 10.1585 36.0561 10.2225C35.4008 10.2931 34.7741 10.4893 34.7741 11.2524C34.7741 11.9184 35.2601 12.2713 35.9044 12.2713ZM36.1111 11.6847C35.779 11.6847 35.5415 11.5325 35.5415 11.2392C35.5415 10.9326 35.8076 10.8047 36.1638 10.754C36.3727 10.7253 36.7905 10.6724 36.8939 10.5886V10.9878C36.8939 11.3649 36.5904 11.6847 36.1111 11.6847Z" fill="#1991EB"/>
<path d="M38.862 13.4732C39.4821 13.4732 39.8405 13.1534 40.0318 12.6131L41.3886 8.81985L40.5376 8.81544L39.757 11.3737H39.7218L38.9433 8.81544H38.0989L39.3238 12.2735L39.2556 12.4565C39.1083 12.8425 38.8752 12.8689 38.5277 12.7675L38.343 13.3894C38.4508 13.4335 38.6443 13.4732 38.862 13.4732Z" fill="#1991EB"/>
<path d="M45.3 7.68628H44.5238L43.4045 8.40744V9.15728L44.4578 8.48243H44.4842V12.2029H45.3V7.68628Z" fill="#1991EB"/>
<path d="M30.4806 15.6043H31.085L32.5062 19.0856H32.5552L33.9763 15.6043H34.5807V19.7983H34.107V16.6118H34.0662L32.7594 19.7983H32.302L30.9952 16.6118H30.9543V19.7983H30.4806V15.6043Z" fill="#949FB1"/>
<path d="M36.4537 19.872C36.2549 19.872 36.0746 19.8345 35.9126 19.7594C35.7506 19.6829 35.6219 19.573 35.5266 19.4297C35.4314 19.285 35.3837 19.1102 35.3837 18.9054C35.3837 18.7252 35.4191 18.5791 35.4899 18.4672C35.5607 18.3539 35.6553 18.2651 35.7737 18.201C35.8921 18.1368 36.0228 18.089 36.1658 18.0576C36.3101 18.0248 36.455 17.9989 36.6007 17.9798C36.7913 17.9552 36.9458 17.9368 37.0642 17.9245C37.184 17.9108 37.2711 17.8883 37.3256 17.8569C37.3814 17.8255 37.4093 17.7709 37.4093 17.6931V17.6767C37.4093 17.4747 37.3541 17.3176 37.2439 17.2057C37.135 17.0937 36.9696 17.0378 36.7477 17.0378C36.5176 17.0378 36.3373 17.0883 36.2066 17.1893C36.0759 17.2903 35.984 17.3982 35.9309 17.5129L35.4736 17.349C35.5552 17.1579 35.6641 17.0091 35.8003 16.9026C35.9377 16.7948 36.0875 16.7197 36.2495 16.6773C36.4128 16.6337 36.5735 16.6118 36.7314 16.6118C36.8321 16.6118 36.9478 16.6241 37.0785 16.6487C37.2105 16.6719 37.3378 16.7204 37.4603 16.7941C37.5842 16.8678 37.687 16.9791 37.7687 17.1279C37.8503 17.2767 37.8912 17.476 37.8912 17.7259V19.7983H37.4093V19.3723H37.3848C37.3521 19.4406 37.2977 19.5136 37.2214 19.5915C37.1452 19.6693 37.0438 19.7355 36.9172 19.7901C36.7906 19.8447 36.6361 19.872 36.4537 19.872ZM36.5272 19.4379C36.7178 19.4379 36.8784 19.4003 37.0091 19.3252C37.1411 19.2501 37.2405 19.1532 37.3072 19.0344C37.3752 18.9157 37.4093 18.7907 37.4093 18.6597V18.2173C37.3889 18.2419 37.3439 18.2644 37.2745 18.2849C37.2064 18.304 37.1275 18.3211 37.0377 18.3361C36.9492 18.3498 36.8627 18.3621 36.7783 18.373C36.6953 18.3825 36.6279 18.3907 36.5762 18.3976C36.4509 18.4139 36.3339 18.4406 36.225 18.4774C36.1174 18.5129 36.0303 18.5668 35.9636 18.6392C35.8983 18.7102 35.8656 18.8071 35.8656 18.93C35.8656 19.0979 35.9275 19.2249 36.0514 19.3109C36.1766 19.3955 36.3352 19.4379 36.5272 19.4379Z" fill="#949FB1"/>
<path d="M39.2526 17.9061V19.7983H38.7707V16.6528H39.2363V17.1443H39.2771C39.3506 16.9845 39.4622 16.8562 39.612 16.7593C39.7617 16.661 39.955 16.6118 40.1919 16.6118C40.5091 16.6118 40.765 16.7094 40.9596 16.9047C41.1557 17.0999 41.2537 17.3982 41.2537 17.7996V19.7983H40.7718V17.8323C40.7718 17.5852 40.7078 17.3927 40.5798 17.2548C40.4519 17.1156 40.2763 17.046 40.053 17.046C39.823 17.046 39.6317 17.1211 39.4793 17.2712C39.3282 17.42 39.2526 17.6317 39.2526 17.9061Z" fill="#949FB1"/>
<path d="M44.1108 18.5122V16.6528H44.5927V19.7983H44.1108V19.2659H44.0781C44.0046 19.4256 43.8903 19.5614 43.7351 19.6734C43.5799 19.784 43.3839 19.8393 43.147 19.8393C42.853 19.8393 42.6107 19.7416 42.4201 19.5464C42.2295 19.3512 42.1342 19.0529 42.1342 18.6515V16.6528H42.6161V18.6187C42.6161 18.8481 42.6801 19.031 42.8081 19.1676C42.9374 19.3041 43.1021 19.3723 43.3022 19.3723C43.422 19.3723 43.5438 19.3416 43.6677 19.2802C43.7929 19.2187 43.8978 19.1245 43.9822 18.9976C44.0679 18.8706 44.1108 18.7088 44.1108 18.5122Z" fill="#949FB1"/>
<path d="M46.3982 19.872C46.1995 19.872 46.0191 19.8345 45.8571 19.7594C45.6951 19.6829 45.5665 19.573 45.4712 19.4297C45.3759 19.285 45.3283 19.1102 45.3283 18.9054C45.3283 18.7252 45.3637 18.5791 45.4345 18.4672C45.5053 18.3539 45.5999 18.2651 45.7183 18.201C45.8367 18.1368 45.9674 18.089 46.1103 18.0576C46.2546 18.0248 46.3996 17.9989 46.5453 17.9798C46.7358 17.9552 46.8903 17.9368 47.0088 17.9245C47.1286 17.9108 47.2157 17.8883 47.2701 17.8569C47.326 17.8255 47.3539 17.7709 47.3539 17.6931V17.6767C47.3539 17.4747 47.2987 17.3176 47.1885 17.2057C47.0796 17.0937 46.9142 17.0378 46.6923 17.0378C46.4622 17.0378 46.2819 17.0883 46.1512 17.1893C46.0205 17.2903 45.9286 17.3982 45.8755 17.5129L45.4181 17.349C45.4998 17.1579 45.6087 17.0091 45.7448 16.9026C45.8823 16.7948 46.0321 16.7197 46.1941 16.6773C46.3574 16.6337 46.518 16.6118 46.6759 16.6118C46.7767 16.6118 46.8924 16.6241 47.0231 16.6487C47.1551 16.6719 47.2824 16.7204 47.4049 16.7941C47.5288 16.8678 47.6316 16.9791 47.7132 17.1279C47.7949 17.2767 47.8357 17.476 47.8357 17.7259V19.7983H47.3539V19.3723H47.3294C47.2967 19.4406 47.2422 19.5136 47.166 19.5915C47.0898 19.6693 46.9884 19.7355 46.8618 19.7901C46.7352 19.8447 46.5807 19.872 46.3982 19.872ZM46.4718 19.4379C46.6623 19.4379 46.823 19.4003 46.9536 19.3252C47.0857 19.2501 47.1851 19.1532 47.2518 19.0344C47.3198 18.9157 47.3539 18.7907 47.3539 18.6597V18.2173C47.3334 18.2419 47.2885 18.2644 47.2191 18.2849C47.151 18.304 47.0721 18.3211 46.9822 18.3361C46.8937 18.3498 46.8073 18.3621 46.7229 18.373C46.6399 18.3825 46.5725 18.3907 46.5208 18.3976C46.3955 18.4139 46.2785 18.4406 46.1696 18.4774C46.062 18.5129 45.9749 18.5668 45.9082 18.6392C45.8428 18.7102 45.8102 18.8071 45.8102 18.93C45.8102 19.0979 45.8721 19.2249 45.996 19.3109C46.1212 19.3955 46.2798 19.4379 46.4718 19.4379Z" fill="#949FB1"/>
<path d="M49.1972 15.6043V19.7983H48.7153V15.6043H49.1972Z" fill="#949FB1"/>
<path d="M51.7623 19.7983V15.6043H54.2861V16.0548H52.2687V17.4719H54.1554V17.9225H52.2687V19.3478H54.3188V19.7983H51.7623Z" fill="#949FB1"/>
<path d="M55.1335 19.7983V16.6528H55.5991V17.1443H55.6399C55.7052 16.9763 55.8107 16.846 55.9564 16.7531C56.102 16.6589 56.277 16.6118 56.4812 16.6118C56.6881 16.6118 56.8603 16.6589 56.9978 16.7531C57.1366 16.846 57.2448 16.9763 57.3224 17.1443H57.3551C57.4354 16.9818 57.5559 16.8528 57.7165 16.7572C57.8771 16.6603 58.0698 16.6118 58.2944 16.6118C58.5748 16.6118 58.8042 16.6999 58.9825 16.876C59.1608 17.0507 59.25 17.3231 59.25 17.6931V19.7983H58.7681V17.6931C58.7681 17.461 58.7048 17.2951 58.5782 17.1955C58.4516 17.0958 58.3025 17.046 58.131 17.046C57.9105 17.046 57.7397 17.1129 57.6185 17.2467C57.4974 17.3791 57.4368 17.547 57.4368 17.7504V19.7983H56.9467V17.6439C56.9467 17.4651 56.8889 17.3211 56.7732 17.2118C56.6574 17.1013 56.5084 17.046 56.326 17.046C56.2007 17.046 56.0837 17.0794 55.9748 17.1463C55.8672 17.2132 55.7801 17.306 55.7134 17.4248C55.6481 17.5422 55.6154 17.6781 55.6154 17.8323V19.7983H55.1335Z" fill="#949FB1"/>
<path d="M61.054 19.872C60.8553 19.872 60.6749 19.8345 60.5129 19.7594C60.3509 19.6829 60.2223 19.573 60.127 19.4297C60.0317 19.285 59.984 19.1102 59.984 18.9054C59.984 18.7252 60.0194 18.5791 60.0902 18.4672C60.161 18.3539 60.2556 18.2651 60.374 18.201C60.4925 18.1368 60.6232 18.089 60.7661 18.0576C60.9104 18.0248 61.0554 17.9989 61.201 17.9798C61.3916 17.9552 61.5461 17.9368 61.6645 17.9245C61.7843 17.9108 61.8714 17.8883 61.9259 17.8569C61.9817 17.8255 62.0096 17.7709 62.0096 17.6931V17.6767C62.0096 17.4747 61.9545 17.3176 61.8442 17.2057C61.7353 17.0937 61.5699 17.0378 61.348 17.0378C61.118 17.0378 60.9376 17.0883 60.8069 17.1893C60.6763 17.2903 60.5844 17.3982 60.5313 17.5129L60.0739 17.349C60.1556 17.1579 60.2645 17.0091 60.4006 16.9026C60.5381 16.7948 60.6878 16.7197 60.8498 16.6773C61.0132 16.6337 61.1738 16.6118 61.3317 16.6118C61.4324 16.6118 61.5481 16.6241 61.6788 16.6487C61.8109 16.6719 61.9381 16.7204 62.0607 16.7941C62.1845 16.8678 62.2873 16.9791 62.369 17.1279C62.4507 17.2767 62.4915 17.476 62.4915 17.7259V19.7983H62.0096V19.3723H61.9851C61.9524 19.4406 61.898 19.5136 61.8218 19.5915C61.7455 19.6693 61.6441 19.7355 61.5175 19.7901C61.3909 19.8447 61.2364 19.872 61.054 19.872ZM61.1275 19.4379C61.3181 19.4379 61.4787 19.4003 61.6094 19.3252C61.7414 19.2501 61.8408 19.1532 61.9075 19.0344C61.9756 18.9157 62.0096 18.7907 62.0096 18.6597V18.2173C61.9892 18.2419 61.9443 18.2644 61.8748 18.2849C61.8068 18.304 61.7278 18.3211 61.638 18.3361C61.5495 18.3498 61.4631 18.3621 61.3787 18.373C61.2956 18.3825 61.2282 18.3907 61.1765 18.3976C61.0513 18.4139 60.9342 18.4406 60.8253 18.4774C60.7178 18.5129 60.6306 18.5668 60.5639 18.6392C60.4986 18.7102 60.4659 18.8071 60.4659 18.93C60.4659 19.0979 60.5279 19.2249 60.6517 19.3109C60.777 19.3955 60.9356 19.4379 61.1275 19.4379Z" fill="#949FB1"/>
<path d="M63.3711 19.7983V16.6528H63.8529V19.7983H63.3711ZM63.6161 16.1285C63.5222 16.1285 63.4412 16.0964 63.3731 16.0323C63.3064 15.9681 63.273 15.891 63.273 15.8009C63.273 15.7108 63.3064 15.6336 63.3731 15.5695C63.4412 15.5053 63.5222 15.4732 63.6161 15.4732C63.71 15.4732 63.7903 15.5053 63.857 15.5695C63.9251 15.6336 63.9591 15.7108 63.9591 15.8009C63.9591 15.891 63.9251 15.9681 63.857 16.0323C63.7903 16.0964 63.71 16.1285 63.6161 16.1285Z" fill="#949FB1"/>
<path d="M65.2174 15.6043V19.7983H64.7356V15.6043H65.2174Z" fill="#949FB1"/>
<path fill-rule="evenodd" clip-rule="evenodd" d="M123.192 21.0748C126.856 21.0748 129.827 18.0957 129.827 14.4208C129.827 10.7459 126.856 7.76685 123.192 7.76685C119.528 7.76685 116.558 10.7459 116.558 14.4208C116.558 18.0957 119.528 21.0748 123.192 21.0748ZM123.192 20.2986C126.429 20.2986 129.053 17.6671 129.053 14.4209C129.053 11.1748 126.429 8.54324 123.192 8.54324C119.956 8.54324 117.332 11.1748 117.332 14.4209C117.332 17.6671 119.956 20.2986 123.192 20.2986Z" fill="#D3DAE3"/>
<path d="M123.58 21.0636C127.064 20.862 129.827 17.965 129.827 14.4208C129.827 10.8766 127.064 7.97961 123.58 7.77805C123.366 7.76566 123.192 7.94063 123.192 8.15499C123.192 8.36936 123.367 8.5418 123.58 8.55583C126.636 8.75626 129.053 11.3055 129.053 14.4208C129.053 17.5362 126.636 20.0854 123.58 20.2858C123.367 20.2999 123.192 20.4723 123.192 20.6867C123.192 20.901 123.366 21.076 123.58 21.0636Z" fill="#1991EB"/>
<path d="M120.537 15.9137C121.12 15.9137 121.535 15.5011 121.534 14.9354C121.535 14.374 121.145 13.9657 120.618 13.9657C120.403 13.9657 120.204 14.0479 120.09 14.1585H120.073L120.165 13.3461H121.394V12.9704H119.802L119.64 14.4336L120.04 14.4931C120.148 14.3953 120.343 14.3286 120.519 14.3286C120.862 14.3315 121.111 14.5895 121.111 14.9439C121.111 15.2927 120.869 15.5451 120.537 15.5451C120.257 15.5451 120.035 15.3664 120.013 15.1169H119.589C119.606 15.5791 120.006 15.9137 120.537 15.9137Z" fill="#949FB1"/>
<path d="M123.148 12.9704H122.723L122.001 13.444V13.8636L122.693 13.4099H122.71V15.874H123.148V12.9704Z" fill="#949FB1"/>
<path d="M125.443 15.3296C125.444 15.6571 125.649 15.9335 126.032 15.9335C126.411 15.9335 126.619 15.6571 126.619 15.3296V15.1765C126.619 14.8475 126.417 14.5725 126.032 14.5725C125.655 14.5725 125.444 14.849 125.443 15.1765V15.3296ZM123.987 13.668C123.987 13.9955 124.193 14.2719 124.576 14.2719C124.954 14.2719 125.163 13.9969 125.161 13.668V13.5149C125.163 13.1859 124.959 12.9109 124.576 12.9109C124.2 12.9109 123.987 13.1859 123.987 13.5149V13.668ZM124.106 15.874H124.443L126.434 12.9704H126.096L124.106 15.874ZM125.772 15.1765C125.774 15.0134 125.844 14.856 126.032 14.856C126.227 14.856 126.288 15.0134 126.288 15.1765V15.3296C126.288 15.4926 126.222 15.65 126.032 15.65C125.84 15.65 125.774 15.4912 125.772 15.3296V15.1765ZM124.318 13.5149C124.318 13.3532 124.388 13.1944 124.576 13.1944C124.771 13.1944 124.832 13.3518 124.832 13.5149V13.668C124.832 13.831 124.766 13.9884 124.576 13.9884C124.384 13.9884 124.318 13.831 124.318 13.668V13.5149Z" fill="#949FB1"/>
<path d="M96.8327 14.7434C96.8327 13.8148 96.2786 13.252 95.5294 13.252C94.7773 13.252 94.2246 13.8148 94.2246 14.7434C94.2246 15.6706 94.7773 16.2349 95.5294 16.2349C96.2786 16.2349 96.8327 15.6721 96.8327 14.7434ZM96.4002 14.7434C96.4002 15.4509 96.027 15.8351 95.5294 15.8351C95.0304 15.8351 94.6586 15.4509 94.6586 14.7434C94.6586 14.036 95.0304 13.6518 95.5294 13.6518C96.027 13.6518 96.4002 14.036 96.4002 14.7434Z" fill="#949FB1"/>
<path d="M97.3434 17.0118H97.7661V15.8564H97.7915C97.8679 15.9953 98.0234 16.2377 98.4192 16.2377C98.9451 16.2377 99.3267 15.8152 99.3267 15.1106C99.3267 14.4046 98.9394 13.9892 98.4149 13.9892C98.0121 13.9892 97.8665 14.2359 97.7915 14.3706H97.7562V14.0175H97.3434V17.0118ZM97.7576 15.1064C97.7576 14.6513 97.9555 14.3493 98.3245 14.3493C98.7076 14.3493 98.8998 14.674 98.8998 15.1064C98.8998 15.543 98.7019 15.8762 98.3245 15.8762C97.9612 15.8762 97.7576 15.5643 97.7576 15.1064Z" fill="#949FB1"/>
<path d="M100.736 16.2392C101.21 16.2392 101.545 16.0052 101.641 15.6508L101.241 15.5785C101.164 15.7841 100.981 15.889 100.74 15.889C100.378 15.889 100.135 15.6536 100.124 15.234H101.668V15.0837C101.668 14.2968 101.198 13.9892 100.706 13.9892C100.101 13.9892 99.7028 14.4514 99.7028 15.1206C99.7028 15.7968 100.096 16.2392 100.736 16.2392ZM100.125 14.9164C100.142 14.6073 100.366 14.3394 100.709 14.3394C101.037 14.3394 101.252 14.5832 101.254 14.9164H100.125Z" fill="#949FB1"/>
<path d="M102.559 14.9022C102.559 14.5549 102.771 14.3564 103.065 14.3564C103.352 14.3564 103.526 14.5449 103.526 14.8611V16.1952H103.949V14.8101C103.949 14.2713 103.653 13.9892 103.21 13.9892C102.883 13.9892 102.67 14.1409 102.569 14.372H102.542V14.0175H102.137V16.1952H102.559V14.9022Z" fill="#949FB1"/>
<path d="M105.603 16.1952H106.04V15.0964H106.634C106.644 15.0964 106.652 15.0964 106.662 15.0964L107.25 16.1952H107.748L107.106 15.0199C107.461 14.888 107.637 14.5917 107.637 14.2018C107.637 13.6674 107.307 13.2917 106.635 13.2917H105.603V16.1952ZM106.04 14.7193V13.6674H106.589C107.02 13.6674 107.198 13.8729 107.198 14.2018C107.198 14.5293 107.02 14.7193 106.594 14.7193H106.04Z" fill="#949FB1"/>
<path d="M108.767 16.2434C109.126 16.2434 109.328 16.0605 109.409 15.8975H109.426V16.1952H109.838V14.7491C109.838 14.1154 109.341 13.9892 108.996 13.9892C108.603 13.9892 108.241 14.148 108.1 14.5449L108.497 14.6357C108.559 14.4811 108.717 14.3323 109.002 14.3323C109.274 14.3323 109.414 14.4755 109.414 14.7222V14.7321C109.414 14.8866 109.256 14.8838 108.866 14.9292C108.455 14.9774 108.033 15.0851 108.033 15.5799C108.033 16.0081 108.354 16.2434 108.767 16.2434ZM108.859 15.9031C108.62 15.9031 108.447 15.7954 108.447 15.5856C108.447 15.3587 108.648 15.2779 108.893 15.2453C109.03 15.2269 109.355 15.19 109.416 15.1291V15.4098C109.416 15.6678 109.211 15.9031 108.859 15.9031Z" fill="#949FB1"/>
<path d="M111.415 14.0175H110.97V13.4958H110.547V14.0175H110.229V14.3578H110.547V15.6437C110.546 16.0393 110.847 16.2307 111.18 16.2236C111.315 16.2221 111.405 16.1966 111.455 16.1782L111.378 15.828C111.35 15.8337 111.298 15.8464 111.23 15.8464C111.093 15.8464 110.97 15.8011 110.97 15.5558V14.3578H111.415V14.0175Z" fill="#949FB1"/>
<path d="M112.795 16.2392C113.269 16.2392 113.604 16.0052 113.7 15.6508L113.3 15.5785C113.223 15.7841 113.04 15.889 112.799 15.889C112.437 15.889 112.194 15.6536 112.183 15.234H113.727V15.0837C113.727 14.2968 113.257 13.9892 112.765 13.9892C112.16 13.9892 111.762 14.4514 111.762 15.1206C111.762 15.7968 112.155 16.2392 112.795 16.2392ZM112.184 14.9164C112.201 14.6073 112.425 14.3394 112.768 14.3394C113.096 14.3394 113.311 14.5832 113.312 14.9164H112.184Z" fill="#949FB1"/>
<g filter="url(#filter1_d_3063_15724)">
<rect x="29.5386" y="37.9316" width="176" height="24" rx="3" fill="white"/>
</g>
<path d="M167.234 53.014L167.606 51.9003H169.299L169.673 53.014H170.544L168.956 48.4974H167.949L166.363 53.014H167.234ZM167.826 51.2431L168.435 49.4236H168.47L169.079 51.2431H167.826Z" fill="#949FB1"/>
<path d="M172.94 48.2856H172.243L170.791 53.6933H171.489L172.94 48.2856Z" fill="#949FB1"/>
<path d="M173.483 53.014H175.306C176.337 53.014 176.843 52.4869 176.843 51.7834C176.843 51.0997 176.359 50.6983 175.88 50.6741V50.63C176.32 50.5263 176.667 50.2176 176.667 49.6684C176.667 48.9958 176.183 48.4974 175.207 48.4974H173.483V53.014ZM174.299 52.3303V51.0071H175.198C175.702 51.0071 176.014 51.3159 176.014 51.7194C176.014 52.0789 175.768 52.3303 175.176 52.3303H174.299ZM174.299 50.4183V49.1722H175.123C175.603 49.1722 175.851 49.4258 175.851 49.7743C175.851 50.1713 175.53 50.4183 175.106 50.4183H174.299Z" fill="#949FB1"/>
<path d="M178.891 49.1832H180.283V53.014H181.092V49.1832H182.484V48.4974H178.891V49.1832Z" fill="#949FB1"/>
<path d="M184.147 53.0802C184.934 53.0802 185.475 52.6942 185.616 52.1054L184.873 52.0216C184.765 52.3083 184.501 52.4582 184.158 52.4582C183.643 52.4582 183.303 52.1186 183.296 51.5386H185.649V51.2938C185.649 50.1051 184.936 49.5824 184.105 49.5824C183.138 49.5824 182.506 50.2948 182.506 51.3401C182.506 52.4031 183.129 53.0802 184.147 53.0802ZM183.298 51.0005C183.322 50.5682 183.641 50.2043 184.116 50.2043C184.574 50.2043 184.881 50.5396 184.886 51.0005H183.298Z" fill="#949FB1"/>
<path d="M188.992 50.5219C188.882 49.9485 188.424 49.5824 187.633 49.5824C186.819 49.5824 186.265 49.9838 186.267 50.6101C186.265 51.1041 186.569 51.4305 187.217 51.5651L187.793 51.6864C188.103 51.7547 188.249 51.8804 188.249 52.0723C188.249 52.3039 187.998 52.4781 187.62 52.4781C187.255 52.4781 187.017 52.3193 186.949 52.015L186.173 52.0899C186.272 52.7119 186.793 53.0802 187.622 53.0802C188.466 53.0802 189.062 52.6413 189.064 51.9995C189.062 51.5165 188.752 51.221 188.114 51.0821L187.538 50.9586C187.195 50.8814 187.059 50.7623 187.061 50.566C187.059 50.3367 187.312 50.1779 187.644 50.1779C188.011 50.1779 188.205 50.3786 188.266 50.6013L188.992 50.5219Z" fill="#949FB1"/>
<path d="M191.407 49.6265H190.741V48.8149H189.945V49.6265H189.466V50.244H189.945V52.1274C189.941 52.7648 190.402 53.078 191.001 53.0603C191.227 53.0537 191.383 53.0096 191.469 52.9809L191.335 52.3568C191.291 52.3678 191.201 52.3877 191.102 52.3877C190.902 52.3877 190.741 52.3171 190.741 51.9951V50.244H191.407V49.6265Z" fill="#949FB1"/>
<path d="M194.46 48.4974H193.644V53.014H194.46V48.4974Z" fill="#949FB1"/>
<path d="M196.995 49.6265H196.329V48.8149H195.533V49.6265H195.053V50.244H195.533V52.1274C195.528 52.7648 195.99 53.078 196.588 53.0603C196.815 53.0537 196.971 53.0096 197.057 52.9809L196.922 52.3568C196.878 52.3678 196.788 52.3877 196.689 52.3877C196.489 52.3877 196.329 52.3171 196.329 51.9951V50.244H196.995V49.6265Z" fill="#949FB1"/>
<path fill-rule="evenodd" clip-rule="evenodd" d="M47.9717 45.5672C48.0315 45.4058 47.9965 45.2174 47.8668 45.0877C47.8606 45.0814 47.8542 45.0754 47.8476 45.0696C47.8542 45.0754 47.8606 45.0815 47.8669 45.0877C47.9904 45.2112 48.0322 45.3945 47.9745 45.5593L47.9717 45.5672ZM45.8155 46.4962L39.6869 48.6412L42.4448 49.867L45.8155 46.4962ZM43.0876 50.5098L46.4585 47.1389L44.3134 53.2677L43.0876 50.5098ZM47.3849 44.9838L38.3044 48.1619C38.1285 48.2235 38.008 48.3862 38.0004 48.5724C37.9928 48.7586 38.0996 48.9306 38.2699 49.0063L42.2011 50.7535L43.9483 54.6847C44.024 54.855 44.196 54.9618 44.3822 54.9542C44.5684 54.9466 44.7311 54.8261 44.7927 54.6502L47.9717 45.5672" fill="#02C797"/>
<path d="M59.5261 48.5784C60.8982 48.5784 61.7119 47.7271 61.7119 46.3157C61.7119 44.9086 60.8982 44.0618 59.5569 44.0618H58V48.5784H59.5261ZM58.8158 47.8705V44.7697H59.5107C60.4255 44.7697 60.9026 45.2813 60.9026 46.3157C60.9026 47.3544 60.4255 47.8705 59.4865 47.8705H58.8158Z" fill="#1991EB"/>
<path d="M63.4238 48.6468C63.9537 48.6468 64.2704 48.3976 64.4155 48.1131H64.4419V48.5784H65.2071V46.3113C65.2071 45.4159 64.4793 45.1468 63.835 45.1468C63.1247 45.1468 62.5794 45.4644 62.4034 46.0819L63.1467 46.1877C63.2259 45.9562 63.4502 45.7577 63.8394 45.7577C64.2088 45.7577 64.4111 45.9474 64.4111 46.2804V46.2936C64.4111 46.523 64.1714 46.534 63.5755 46.598C62.9202 46.6685 62.2935 46.8648 62.2935 47.6279C62.2935 48.2939 62.7795 48.6468 63.4238 48.6468ZM63.6305 48.0601C63.2984 48.0601 63.0609 47.908 63.0609 47.6146C63.0609 47.3081 63.327 47.1802 63.6832 47.1295C63.8921 47.1008 64.31 47.0479 64.4133 46.964V47.3632C64.4133 47.7403 64.1098 48.0601 63.6305 48.0601Z" fill="#1991EB"/>
<path d="M66.3814 49.8487C67.0015 49.8487 67.3599 49.5289 67.5512 48.9886L68.908 45.1953L68.057 45.1909L67.2764 47.7492H67.2412L66.4627 45.1909H65.6183L66.8432 48.649L66.775 48.832C66.6277 49.218 66.3946 49.2444 66.0471 49.143L65.8624 49.7649C65.9702 49.809 66.1637 49.8487 66.3814 49.8487Z" fill="#1991EB"/>
<path d="M72.6039 48.6401C73.5671 48.6401 74.2685 48.0866 74.2663 47.3235C74.2685 46.7589 73.9167 46.3532 73.2856 46.2627V46.2274C73.7738 46.1216 74.1014 45.7577 74.0992 45.2505C74.1014 44.5624 73.5165 44 72.6171 44C71.7419 44 71.0646 44.5227 71.0471 45.2791H71.8321C71.8453 44.8998 72.1971 44.6638 72.6127 44.6638C73.0327 44.6638 73.312 44.9196 73.3098 45.299C73.312 45.6937 72.9865 45.9562 72.5204 45.9562H72.1224V46.5869H72.5204C73.0899 46.5869 73.4285 46.8736 73.4263 47.2816C73.4285 47.6808 73.0833 47.9543 72.6017 47.9543C72.1487 47.9543 71.7991 47.7183 71.7793 47.35H70.9525C70.9745 48.1131 71.654 48.6401 72.6039 48.6401Z" fill="#1991EB"/>
<path d="M58.4901 55.8411L58.8783 54.7447H60.439L60.8273 55.8411H61.3173L59.8999 51.9697H59.4174L58 55.8411H58.4901ZM59.0253 54.3288L59.6436 52.5821H59.6737L60.292 54.3288H59.0253Z" fill="#949FB1"/>
<path d="M63.6828 54.6539C63.6828 55.1984 63.2681 55.4479 62.9364 55.4479C62.567 55.4479 62.3031 55.1757 62.3031 54.7522V52.9375H61.8583V54.7825C61.8583 55.5235 62.2503 55.8789 62.7931 55.8789C63.2304 55.8789 63.5169 55.6445 63.6526 55.3496H63.6828V55.8411H64.1276V52.9375H63.6828V54.6539Z" fill="#949FB1"/>
<path d="M66.2014 52.9375H65.5832V52.2419H65.1383V52.9375H64.7011V53.3156H65.1383V55.1303C65.1383 55.6369 65.5455 55.8789 65.9224 55.8789C66.0883 55.8789 66.1938 55.8486 66.2542 55.826L66.1637 55.4252C66.126 55.4328 66.0657 55.4479 65.9677 55.4479C65.7716 55.4479 65.5832 55.3874 65.5832 55.0093V53.3156H66.2014V52.9375Z" fill="#949FB1"/>
<path d="M68.0155 55.9016C68.7996 55.9016 69.3274 55.3042 69.3274 54.4044C69.3274 53.4971 68.7996 52.8997 68.0155 52.8997C67.2314 52.8997 66.7037 53.4971 66.7037 54.4044C66.7037 55.3042 67.2314 55.9016 68.0155 55.9016ZM68.0155 55.5008C67.4199 55.5008 67.1485 54.9866 67.1485 54.4044C67.1485 53.8222 67.4199 53.3005 68.0155 53.3005C68.6111 53.3005 68.8826 53.8222 68.8826 54.4044C68.8826 54.9866 68.6111 55.5008 68.0155 55.5008Z" fill="#949FB1"/>
<path d="M70.0064 55.8411H70.4512V54.0264C70.4512 53.601 70.7603 53.3005 71.1071 53.3005C71.4445 53.3005 71.6801 53.5216 71.6801 53.8524V55.8411H72.1325V53.9507C72.1325 53.5765 72.3662 53.3005 72.7733 53.3005C73.09 53.3005 73.3614 53.4687 73.3614 53.8978V55.8411H73.8062V53.8978C73.8062 53.2154 73.4406 52.8997 72.9241 52.8997C72.5094 52.8997 72.206 53.0906 72.0571 53.3912H72.0269C71.8837 53.0812 71.6311 52.8997 71.2504 52.8997C70.8734 52.8997 70.5945 53.0812 70.4738 53.3912H70.4361V52.9375H70.0064V55.8411Z" fill="#949FB1"/>
<path d="M75.4715 55.9091C75.9766 55.9091 76.2405 55.6369 76.3309 55.4479H76.3536V55.8411H76.7984V53.9281C76.7984 53.0056 76.0972 52.8997 75.7278 52.8997C75.2905 52.8997 74.7929 53.0509 74.5667 53.5802L74.9889 53.7315C75.087 53.5197 75.3188 53.2929 75.7429 53.2929C76.1519 53.2929 76.3536 53.5103 76.3536 53.8827V53.8978C76.3536 54.1133 76.1349 54.0944 75.6072 54.1625C75.07 54.2324 74.4838 54.3515 74.4838 55.0169C74.4838 55.584 74.9211 55.9091 75.4715 55.9091ZM75.5393 55.5084C75.185 55.5084 74.9286 55.3496 74.9286 55.0396C74.9286 54.6993 75.2377 54.5935 75.5846 54.5481C75.773 54.5254 76.2782 54.4725 76.3536 54.3817V54.7901C76.3536 55.153 76.0671 55.5084 75.5393 55.5084Z" fill="#949FB1"/>
<path d="M78.8694 52.9375H78.2511V52.2419H77.8063V52.9375H77.369V53.3156H77.8063V55.1303C77.8063 55.6369 78.2134 55.8789 78.5904 55.8789C78.7563 55.8789 78.8618 55.8486 78.9221 55.826L78.8317 55.4252C78.794 55.4328 78.7336 55.4479 78.6356 55.4479C78.4396 55.4479 78.2511 55.3874 78.2511 55.0093V53.3156H78.8694V52.9375Z" fill="#949FB1"/>
<path d="M79.5385 55.8411H79.9833V52.9375H79.5385V55.8411ZM79.7646 52.4536C79.9381 52.4536 80.0813 52.3175 80.0813 52.1511C80.0813 51.9848 79.9381 51.8487 79.7646 51.8487C79.5912 51.8487 79.448 51.9848 79.448 52.1511C79.448 52.3175 79.5912 52.4536 79.7646 52.4536Z" fill="#949FB1"/>
<path d="M81.9741 55.9016C82.615 55.9016 83.0372 55.5084 83.1126 54.9942H82.6678C82.5848 55.3118 82.321 55.5008 81.9741 55.5008C81.4464 55.5008 81.1071 55.0623 81.1071 54.3893C81.1071 53.7315 81.4539 53.3005 81.9741 53.3005C82.3662 53.3005 82.5999 53.5424 82.6678 53.8071H83.1126C83.0372 53.2627 82.5773 52.8997 81.9666 52.8997C81.1825 52.8997 80.6623 53.5197 80.6623 54.4044C80.6623 55.274 81.1599 55.9016 81.9741 55.9016Z" fill="#949FB1"/>
<path d="M85.316 55.8411H87.6758V55.4252H85.7834V54.1095H87.525V53.6937H85.7834V52.3855H87.6456V51.9697H85.316V55.8411Z" fill="#949FB1"/>
<path d="M88.4278 55.8411H88.8726V54.0264C88.8726 53.601 89.1817 53.3005 89.5286 53.3005C89.8659 53.3005 90.1015 53.5216 90.1015 53.8524V55.8411H90.5539V53.9507C90.5539 53.5765 90.7876 53.3005 91.1948 53.3005C91.5114 53.3005 91.7828 53.4687 91.7828 53.8978V55.8411H92.2276V53.8978C92.2276 53.2154 91.862 52.8997 91.3455 52.8997C90.9309 52.8997 90.6274 53.0906 90.4785 53.3912H90.4484C90.3051 53.0812 90.0525 52.8997 89.6718 52.8997C89.2948 52.8997 89.0159 53.0812 88.8953 53.3912H88.8576V52.9375H88.4278V55.8411Z" fill="#949FB1"/>
<path d="M93.8929 55.9091C94.398 55.9091 94.6619 55.6369 94.7524 55.4479H94.775V55.8411H95.2198V53.9281C95.2198 53.0056 94.5187 52.8997 94.1492 52.8997C93.7119 52.8997 93.2144 53.0509 92.9882 53.5802L93.4104 53.7315C93.5084 53.5197 93.7402 53.2929 94.1643 53.2929C94.5733 53.2929 94.775 53.5103 94.775 53.8827V53.8978C94.775 54.1133 94.5564 54.0944 94.0286 54.1625C93.4914 54.2324 92.9052 54.3515 92.9052 55.0169C92.9052 55.584 93.3425 55.9091 93.8929 55.9091ZM93.9607 55.5084C93.6064 55.5084 93.3501 55.3496 93.3501 55.0396C93.3501 54.6993 93.6592 54.5935 94.006 54.5481C94.1945 54.5254 94.6996 54.4725 94.775 54.3817V54.7901C94.775 55.153 94.4885 55.5084 93.9607 55.5084Z" fill="#949FB1"/>
<path d="M96.0317 55.8411H96.4765V52.9375H96.0317V55.8411ZM96.2579 52.4536C96.4313 52.4536 96.5745 52.3175 96.5745 52.1511C96.5745 51.9848 96.4313 51.8487 96.2579 51.8487C96.0845 51.8487 95.9412 51.9848 95.9412 52.1511C95.9412 52.3175 96.0845 52.4536 96.2579 52.4536Z" fill="#949FB1"/>
<path d="M97.7361 51.9697H97.2912V55.8411H97.7361V51.9697Z" fill="#949FB1"/>
<path fill-rule="evenodd" clip-rule="evenodd" d="M149.731 57.0062C153.395 57.0062 156.365 54.0271 156.365 50.3522C156.365 46.6773 153.395 43.6982 149.731 43.6982C146.067 43.6982 143.096 46.6773 143.096 50.3522C143.096 54.0271 146.067 57.0062 149.731 57.0062ZM149.731 56.2298C152.967 56.2298 155.591 53.5983 155.591 50.3521C155.591 47.106 152.967 44.4745 149.731 44.4745C146.494 44.4745 143.87 47.106 143.87 50.3521C143.87 53.5983 146.494 56.2298 149.731 56.2298Z" fill="#D3DAE3"/>
<path fill-rule="evenodd" clip-rule="evenodd" d="M156.365 50.3524C156.365 53.8967 153.602 56.7937 150.119 56.9952C150.113 56.9956 150.108 56.9957 150.102 56.9958C149.979 57.0029 149.855 57.0064 149.731 57.0064C146.192 57.0064 143.3 54.1316 143.106 50.51C143.095 50.2966 143.269 50.123 143.483 50.123C143.697 50.123 143.869 50.2968 143.882 50.5101C144.074 53.6878 146.619 56.2034 149.731 56.2034C152.842 56.2034 155.387 53.6878 155.58 50.5101C155.581 50.4848 155.585 50.46 155.591 50.4361C155.591 50.4082 155.591 50.3804 155.591 50.3524C155.591 47.2371 153.175 44.6879 150.119 44.4875C149.905 44.4734 149.731 44.301 149.731 44.0866C149.731 43.8722 149.905 43.6973 150.119 43.7097C153.602 43.9112 156.365 46.8082 156.365 50.3524Z" fill="#1991EB"/>
<path d="M146.218 51.8054H146.674L147.934 49.2904V48.9019H146.02V49.2776H147.481V49.2989L146.218 51.8054Z" fill="#949FB1"/>
<path d="M149.342 51.8451C149.924 51.8451 150.34 51.4326 150.339 50.8669C150.34 50.3055 149.95 49.8972 149.423 49.8972C149.208 49.8972 149.008 49.9794 148.895 50.09H148.878L148.97 49.2776H150.199V48.9019H148.607L148.444 50.365L148.844 50.4246C148.953 50.3267 149.148 50.2601 149.324 50.2601C149.667 50.2629 149.916 50.521 149.916 50.8754C149.916 51.2242 149.674 51.4765 149.342 51.4765C149.062 51.4765 148.84 51.2979 148.818 51.0484H148.393C148.41 51.5106 148.811 51.8451 149.342 51.8451Z" fill="#949FB1"/>
<path d="M152.366 51.261C152.368 51.5885 152.573 51.865 152.956 51.865C153.334 51.865 153.542 51.5885 153.542 51.261V51.1079C153.542 50.779 153.34 50.5039 152.956 50.5039C152.578 50.5039 152.368 50.7804 152.366 51.1079V51.261ZM150.91 49.5994C150.91 49.9269 151.116 50.2034 151.5 50.2034C151.877 50.2034 152.086 49.9283 152.085 49.5994V49.4463C152.086 49.1174 151.883 48.8423 151.5 48.8423C151.124 48.8423 150.91 49.1174 150.91 49.4463V49.5994ZM151.029 51.8054H151.367L153.357 48.9019H153.019L151.029 51.8054ZM152.696 51.1079C152.697 50.9449 152.768 50.7875 152.956 50.7875C153.151 50.7875 153.211 50.9449 153.211 51.1079V51.261C153.211 51.4241 153.145 51.5814 152.956 51.5814C152.763 51.5814 152.697 51.4227 152.696 51.261V51.1079ZM151.241 49.4463C151.241 49.2847 151.312 49.1259 151.5 49.1259C151.695 49.1259 151.755 49.2833 151.755 49.4463V49.5994C151.755 49.7625 151.689 49.9198 151.5 49.9198C151.307 49.9198 151.241 49.7625 151.241 49.5994V49.4463Z" fill="#949FB1"/>
<path d="M123.371 50.2312C123.371 49.3026 122.817 48.7397 122.068 48.7397C121.316 48.7397 120.763 49.3026 120.763 50.2312C120.763 51.1584 121.316 51.7227 122.068 51.7227C122.817 51.7227 123.371 51.1598 123.371 50.2312ZM122.939 50.2312C122.939 50.9387 122.566 51.3229 122.068 51.3229C121.569 51.3229 121.197 50.9387 121.197 50.2312C121.197 49.5238 121.569 49.1396 122.068 49.1396C122.566 49.1396 122.939 49.5238 122.939 50.2312Z" fill="#949FB1"/>
<path d="M123.882 52.4996H124.305V51.3442H124.33C124.406 51.4831 124.562 51.7255 124.958 51.7255C125.484 51.7255 125.865 51.303 125.865 50.5984C125.865 49.8924 125.478 49.477 124.954 49.477C124.551 49.477 124.405 49.7237 124.33 49.8584H124.295V49.5053H123.882V52.4996ZM124.296 50.5942C124.296 50.1391 124.494 49.8371 124.863 49.8371C125.246 49.8371 125.438 50.1617 125.438 50.5942C125.438 51.0308 125.24 51.364 124.863 51.364C124.5 51.364 124.296 51.0521 124.296 50.5942Z" fill="#949FB1"/>
<path d="M127.275 51.7269C127.748 51.7269 128.083 51.493 128.179 51.1386L127.779 51.0663C127.703 51.2718 127.519 51.3768 127.279 51.3768C126.917 51.3768 126.674 51.1414 126.663 50.7218H128.206V50.5715C128.206 49.7846 127.737 49.477 127.245 49.477C126.64 49.477 126.241 49.9392 126.241 50.6083C126.241 51.2846 126.634 51.7269 127.275 51.7269ZM126.664 50.4042C126.681 50.0951 126.904 49.8272 127.248 49.8272C127.576 49.8272 127.791 50.071 127.792 50.4042H126.664Z" fill="#949FB1"/>
<path d="M129.098 50.39C129.098 50.0427 129.31 49.8442 129.604 49.8442C129.891 49.8442 130.065 50.0327 130.065 50.3489V51.683H130.488V50.2979C130.488 49.7591 130.192 49.477 129.748 49.477C129.422 49.477 129.208 49.6287 129.108 49.8598H129.081V49.5053H128.675V51.683H129.098V50.39Z" fill="#949FB1"/>
<path d="M132.142 51.683H132.579V50.5842H133.172C133.182 50.5842 133.191 50.5842 133.201 50.5842L133.789 51.683H134.286L133.644 50.5077C133.999 50.3758 134.176 50.0795 134.176 49.6896C134.176 49.1551 133.845 48.7794 133.174 48.7794H132.142V51.683ZM132.579 50.2071V49.1551H133.127C133.558 49.1551 133.736 49.3607 133.736 49.6896C133.736 50.0171 133.558 50.2071 133.133 50.2071H132.579Z" fill="#949FB1"/>
<path d="M135.305 51.7312C135.665 51.7312 135.867 51.5483 135.947 51.3853H135.964V51.683H136.377V50.2369C136.377 49.6032 135.879 49.477 135.535 49.477C135.142 49.477 134.78 49.6358 134.638 50.0327L135.035 50.1235C135.098 49.9689 135.256 49.8201 135.54 49.8201C135.813 49.8201 135.953 49.9633 135.953 50.21V50.2199C135.953 50.3744 135.795 50.3716 135.404 50.4169C134.993 50.4651 134.572 50.5729 134.572 51.0677C134.572 51.4959 134.893 51.7312 135.305 51.7312ZM135.397 51.3909C135.158 51.3909 134.986 51.2832 134.986 51.0734C134.986 50.8465 135.187 50.7657 135.431 50.7331C135.568 50.7147 135.894 50.6778 135.954 50.6168V50.8976C135.954 51.1556 135.749 51.3909 135.397 51.3909Z" fill="#949FB1"/>
<path d="M137.954 49.5053H137.508V48.9836H137.086V49.5053H136.768V49.8456H137.086V51.1315C137.084 51.527 137.385 51.7184 137.719 51.7114C137.853 51.7099 137.944 51.6844 137.993 51.666L137.917 51.3158C137.889 51.3215 137.836 51.3342 137.768 51.3342C137.631 51.3342 137.508 51.2889 137.508 51.0436V49.8456H137.954V49.5053Z" fill="#949FB1"/>
<path d="M139.334 51.7269C139.807 51.7269 140.142 51.493 140.238 51.1386L139.838 51.0663C139.762 51.2718 139.578 51.3768 139.338 51.3768C138.976 51.3768 138.733 51.1414 138.722 50.7218H140.265V50.5715C140.265 49.7846 139.796 49.477 139.304 49.477C138.699 49.477 138.3 49.9392 138.3 50.6083C138.3 51.2846 138.693 51.7269 139.334 51.7269ZM138.723 50.4042C138.74 50.0951 138.963 49.8272 139.307 49.8272C139.635 49.8272 139.85 50.071 139.851 50.4042H138.723Z" fill="#949FB1"/>
<g filter="url(#filter2_d_3063_15724)">
<rect x="56.0769" y="73.863" width="176" height="24.244" rx="3" fill="white"/>
</g>
<path d="M177.874 84.4288H176.979L178.564 88.9454H179.571L181.159 84.4288H180.262L179.092 87.9839H179.046L177.874 84.4288Z" fill="#949FB1"/>
<path d="M181.717 88.9454H182.513V85.5579H181.717V88.9454ZM182.117 85.0772C182.37 85.0772 182.577 84.8831 182.577 84.6449C182.577 84.4045 182.37 84.2104 182.117 84.2104C181.862 84.2104 181.655 84.4045 181.655 84.6449C181.655 84.8831 181.862 85.0772 182.117 85.0772Z" fill="#949FB1"/>
<path d="M184.827 89.0116C185.614 89.0116 186.155 88.6256 186.296 88.0368L185.553 87.953C185.445 88.2397 185.181 88.3897 184.838 88.3897C184.323 88.3897 183.982 88.05 183.976 87.47H186.329V87.2252C186.329 86.0365 185.616 85.5138 184.785 85.5138C183.818 85.5138 183.186 86.2262 183.186 87.2715C183.186 88.3345 183.809 89.0116 184.827 89.0116ZM183.978 86.9319C184.002 86.4996 184.321 86.1358 184.796 86.1358C185.253 86.1358 185.561 86.471 185.566 86.9319H183.978Z" fill="#949FB1"/>
<path d="M187.681 88.9454H188.512L189.146 86.6562H189.192L189.825 88.9454H190.654L191.611 85.5579H190.797L190.212 87.9265H190.179L189.572 85.5579H188.77L188.163 87.9398H188.132L187.538 85.5579H186.727L187.681 88.9454Z" fill="#949FB1"/>
<path d="M193.54 85.1147H194.932V88.9454H195.741V85.1147H197.133V84.4288H193.54V85.1147Z" fill="#949FB1"/>
<path d="M197.44 88.9454H198.236V86.954C198.236 86.5239 198.559 86.2196 198.997 86.2196C199.131 86.2196 199.298 86.2438 199.366 86.2659V85.5315C199.293 85.5182 199.168 85.5094 199.08 85.5094C198.693 85.5094 198.37 85.73 198.247 86.1225H198.211V85.5579H197.44V88.9454Z" fill="#949FB1"/>
<path d="M200.8 89.0138C201.33 89.0138 201.647 88.7646 201.792 88.4801H201.818V88.9454H202.584V86.6783C202.584 85.7829 201.856 85.5138 201.211 85.5138C200.501 85.5138 199.956 85.8314 199.78 86.4489L200.523 86.5548C200.602 86.3232 200.827 86.1247 201.216 86.1247C201.585 86.1247 201.788 86.3144 201.788 86.6474V86.6606C201.788 86.89 201.548 86.901 200.952 86.965C200.297 87.0356 199.67 87.2318 199.67 87.9949C199.67 88.6609 200.156 89.0138 200.8 89.0138ZM201.007 88.4272C200.675 88.4272 200.437 88.275 200.437 87.9817C200.437 87.6751 200.703 87.5472 201.06 87.4965C201.269 87.4678 201.686 87.4149 201.79 87.3311V87.7303C201.79 88.1074 201.486 88.4272 201.007 88.4272Z" fill="#949FB1"/>
<path d="M204.18 86.9606C204.18 86.471 204.475 86.1887 204.895 86.1887C205.306 86.1887 205.552 86.4599 205.552 86.9121V88.9454H206.348V86.7886C206.35 85.977 205.889 85.5138 205.192 85.5138C204.686 85.5138 204.338 85.7564 204.184 86.1335H204.145V85.5579H203.384V88.9454H204.18V86.9606Z" fill="#949FB1"/>
<path d="M209.827 86.4533C209.717 85.8799 209.26 85.5138 208.468 85.5138C207.654 85.5138 207.1 85.9152 207.102 86.5415C207.1 87.0356 207.404 87.362 208.052 87.4965L208.629 87.6178C208.939 87.6861 209.084 87.8119 209.084 88.0037C209.084 88.2353 208.833 88.4095 208.455 88.4095C208.09 88.4095 207.852 88.2507 207.784 87.9464L207.008 88.0214C207.107 88.6433 207.628 89.0116 208.457 89.0116C209.301 89.0116 209.897 88.5727 209.9 87.9309C209.897 87.448 209.587 87.1524 208.95 87.0135L208.373 86.89C208.03 86.8128 207.894 86.6937 207.896 86.4974C207.894 86.2681 208.147 86.1093 208.479 86.1093C208.846 86.1093 209.04 86.31 209.101 86.5327L209.827 86.4533Z" fill="#949FB1"/>
<path d="M212.029 89.0116C212.878 89.0116 213.419 88.5065 213.476 87.7876H212.715C212.647 88.1515 212.386 88.361 212.036 88.361C211.539 88.361 211.218 87.9442 211.218 87.2517C211.218 86.568 211.546 86.1578 212.036 86.1578C212.419 86.1578 212.654 86.4048 212.715 86.7312H213.476C213.421 85.9968 212.85 85.5138 212.025 85.5138C211.035 85.5138 210.411 86.2306 210.411 87.2649C210.411 88.2904 211.02 89.0116 212.029 89.0116Z" fill="#949FB1"/>
<path d="M214.13 88.9454H214.926V86.954C214.926 86.5239 215.249 86.2196 215.687 86.2196C215.821 86.2196 215.988 86.2438 216.056 86.2659V85.5315C215.984 85.5182 215.858 85.5094 215.77 85.5094C215.383 85.5094 215.06 85.73 214.937 86.1225H214.902V85.5579H214.13V88.9454Z" fill="#949FB1"/>
<path d="M216.585 88.9454H217.381V85.5579H216.585V88.9454ZM216.985 85.0772C217.238 85.0772 217.445 84.8831 217.445 84.6449C217.445 84.4045 217.238 84.2104 216.985 84.2104C216.73 84.2104 216.523 84.4045 216.523 84.6449C216.523 84.8831 216.73 85.0772 216.985 85.0772Z" fill="#949FB1"/>
<path d="M218.2 90.2157H218.996V88.4117H219.029C219.154 88.6587 219.416 89.005 219.996 89.005C220.792 89.005 221.388 88.372 221.388 87.2561C221.388 86.1269 220.775 85.5138 219.994 85.5138C219.398 85.5138 219.15 85.8733 219.029 86.1181H218.982V85.5579H218.2V90.2157ZM218.98 87.2517C218.98 86.5945 219.262 86.1688 219.774 86.1688C220.304 86.1688 220.577 86.6209 220.577 87.2517C220.577 87.8868 220.3 88.35 219.774 88.35C219.266 88.35 218.98 87.9089 218.98 87.2517Z" fill="#949FB1"/>
<path d="M223.756 85.5579H223.09V84.7464H222.294V85.5579H221.815V86.1755H222.294V88.0589C222.29 88.6962 222.751 89.0094 223.35 88.9917C223.576 88.9851 223.732 88.941 223.818 88.9123L223.684 88.2882C223.64 88.2992 223.55 88.3191 223.451 88.3191C223.251 88.3191 223.09 88.2485 223.09 87.9265V86.1755H223.756V85.5579Z" fill="#949FB1"/>
<path d="M73.227 87.4254L72.1611 86.3592C71.9504 86.1408 71.696 86.0262 71.4266 86.0262C71.1586 86.0262 70.9028 86.1408 70.6857 86.3563L70.1304 86.9113C70.1024 86.8969 70.0759 86.8833 70.0508 86.8712C69.9856 86.8389 69.9226 86.8067 69.8688 86.7727C69.3056 86.4154 68.7922 85.9475 68.2988 85.3435C68.081 85.0685 67.9305 84.838 67.8216 84.6103C67.962 84.4785 68.0946 84.3446 68.22 84.2157C68.273 84.162 68.3282 84.1065 68.3823 84.0528C68.6045 83.8309 68.722 83.5724 68.722 83.3053C68.722 83.0368 68.6045 82.7783 68.3823 82.5578L67.8528 82.0286C67.7926 81.9685 67.7353 81.9105 67.6765 81.8485L67.6736 81.8457C67.5583 81.7268 67.4336 81.6004 67.3089 81.4851C67.0975 81.2782 66.8449 81.1694 66.578 81.1694C66.3129 81.1694 66.0578 81.2796 65.8399 81.4873L65.1728 82.1539C64.9034 82.4206 64.7508 82.7464 64.7196 83.1223C64.6838 83.5698 64.7651 84.0424 64.9758 84.6074C65.2929 85.4684 65.7704 86.265 66.4777 87.1145C67.3347 88.1385 68.3701 88.9483 69.5535 89.5222L69.5542 89.5229C70.0121 89.7395 70.6248 89.9937 71.3026 90.0378H71.3105C71.3499 90.0396 71.39 90.0413 71.433 90.0413C71.9196 90.0413 72.3115 89.8731 72.6314 89.5265C72.6368 89.5201 72.644 89.5129 72.6511 89.5032C72.7407 89.3966 72.8428 89.2963 72.9521 89.1918L72.9772 89.1674C73.0793 89.07 73.1599 88.9895 73.2315 88.915C73.4458 88.6923 73.5583 88.4335 73.5576 88.1661C73.5576 87.8975 73.4429 87.6416 73.2262 87.425L73.227 87.4254ZM65.4587 83.1857C65.4767 82.9824 65.5526 82.8205 65.697 82.6766L66.357 82.0172C66.4293 81.9473 66.5056 81.9097 66.5762 81.9097C66.6622 81.9097 66.7385 81.9688 66.7869 82.0179L66.7923 82.0232C66.8926 82.1163 66.9893 82.2148 67.0914 82.3186L67.138 82.3659C67.1685 82.3974 67.1996 82.4285 67.2312 82.4607C67.2616 82.4912 67.2921 82.5223 67.3225 82.5538L67.8535 83.0844C67.909 83.1399 67.9753 83.224 67.9753 83.3082C67.9753 83.3923 67.909 83.4764 67.8535 83.5319C67.8255 83.5599 67.798 83.5874 67.77 83.6161C67.7431 83.644 67.7156 83.6716 67.6876 83.6995L67.65 83.7371C67.5002 83.8882 67.358 84.0314 67.205 84.1685L67.19 84.1835C66.9578 84.4155 67.0377 84.6554 67.0638 84.7341C67.0656 84.7406 67.0674 84.7449 67.0692 84.7503L67.0728 84.7592C67.2179 85.1065 67.4167 85.4305 67.7177 85.8089L67.7184 85.8096C68.2601 86.4773 68.832 86.9972 69.4668 87.401C69.5366 87.4464 69.6072 87.4826 69.6764 87.5163C69.6889 87.5227 69.7022 87.5288 69.7151 87.536L69.7158 87.5367C69.781 87.5689 69.844 87.6011 69.8978 87.6351L69.9139 87.6441C69.9193 87.6469 69.9247 87.6505 69.93 87.653C70.0089 87.6931 70.0902 87.7139 70.1719 87.7139C70.3098 87.7139 70.4352 87.6584 70.5445 87.5485L71.2091 86.8844C71.2611 86.8324 71.3399 86.7716 71.4259 86.7716C71.5136 86.7716 71.59 86.8396 71.6283 86.8808L71.6301 86.8826L72.7031 87.9531C72.8572 88.107 72.8543 88.2431 72.696 88.4077L72.6942 88.4095C72.6189 88.4901 72.5394 88.5671 72.4641 88.6394L72.4426 88.6598C72.3226 88.7761 72.199 88.8961 72.0836 89.0339C71.9081 89.2219 71.7082 89.3053 71.4359 89.3053C71.4108 89.3053 71.3821 89.3035 71.3535 89.3017C70.7974 89.2659 70.2733 89.0468 69.8781 88.8585C68.7907 88.3322 67.8388 87.5875 67.0494 86.6442C66.3981 85.8608 65.961 85.1334 65.6718 84.3536C65.5005 83.8935 65.4317 83.5212 65.4586 83.1846L65.4587 83.1857Z" fill="#02C797"/>
<path d="M85.0837 84.066C86.4559 84.066 87.2695 83.2147 87.2695 81.8032C87.2695 80.3962 86.4559 79.5493 85.1145 79.5493H83.5576V84.066H85.0837ZM84.3734 83.358V80.2572H85.0683C85.9831 80.2572 86.4603 80.7689 86.4603 81.8032C86.4603 82.842 85.9831 83.358 85.0441 83.358H84.3734Z" fill="#1991EB"/>
<path d="M88.9814 84.1343C89.5113 84.1343 89.828 83.8851 89.9731 83.6006H89.9995V84.066H90.7647V81.7988C90.7647 80.9034 90.0369 80.6344 89.3926 80.6344C88.6823 80.6344 88.137 80.9519 87.9611 81.5695L88.7043 81.6753C88.7835 81.4437 89.0078 81.2453 89.397 81.2453C89.7664 81.2453 89.9687 81.4349 89.9687 81.7679V81.7812C89.9687 82.0105 89.729 82.0216 89.1331 82.0855C88.4778 82.1561 87.8511 82.3524 87.8511 83.1154C87.8511 83.7815 88.3371 84.1343 88.9814 84.1343ZM89.1881 83.5477C88.856 83.5477 88.6186 83.3955 88.6186 83.1022C88.6186 82.7957 88.8846 82.6677 89.2409 82.617C89.4498 82.5883 89.8676 82.5354 89.9709 82.4516V82.8508C89.9709 83.2279 89.6675 83.5477 89.1881 83.5477Z" fill="#1991EB"/>
<path d="M91.939 85.3363C92.5591 85.3363 92.9175 85.0165 93.1089 84.4762L94.4656 80.6829L93.6146 80.6785L92.834 83.2367H92.7988L92.0204 80.6785H91.176L92.4008 84.1365L92.3326 84.3196C92.1853 84.7055 91.9522 84.732 91.6048 84.6305L91.42 85.2525C91.5278 85.2966 91.7213 85.3363 91.939 85.3363Z" fill="#1991EB"/>
<path d="M98.111 84.1277C99.0631 84.1277 99.7272 83.4793 99.7272 82.5817C99.7272 81.7128 99.1247 81.0865 98.3067 81.0865C97.9416 81.0865 97.6184 81.232 97.4513 81.4305H97.4249L97.5546 80.233H99.4919V79.5493H96.8795L96.6443 81.8782L97.3809 81.9995C97.5326 81.8319 97.8185 81.7194 98.089 81.7216C98.5837 81.7238 98.94 82.0899 98.9378 82.6016C98.94 83.1066 98.5925 83.4661 98.111 83.4661C97.7042 83.4661 97.3765 83.2081 97.3479 82.8376H96.5563C96.5783 83.5874 97.2314 84.1277 98.111 84.1277Z" fill="#1991EB"/>
<path d="M83.5576 91.5876H84.064V90.0558H84.9788C85.9528 90.0558 86.3918 89.4619 86.3918 88.7206C86.3918 87.9793 85.9528 87.3936 84.9706 87.3936H83.5576V91.5876ZM84.064 89.6053V87.8441H84.9543C85.6342 87.8441 85.8936 88.2168 85.8936 88.7206C85.8936 89.2244 85.6342 89.6053 84.9624 89.6053H84.064Z" fill="#949FB1"/>
<path d="M87.6241 89.6954C87.6241 89.1466 87.9732 88.8353 88.449 88.8353C88.9023 88.8353 89.1759 89.122 89.1759 89.6217V91.5876H89.6578V89.5889C89.6578 88.78 89.229 88.4011 88.5878 88.4011C88.0937 88.4011 87.8119 88.608 87.6649 88.9336H87.6241V87.3936H87.1422V91.5876H87.6241V89.6954Z" fill="#949FB1"/>
<path d="M91.8135 91.6532C92.663 91.6532 93.2347 91.006 93.2347 90.0312C93.2347 89.0483 92.663 88.4011 91.8135 88.4011C90.9641 88.4011 90.3924 89.0483 90.3924 90.0312C90.3924 91.006 90.9641 91.6532 91.8135 91.6532ZM91.8135 91.219C91.1683 91.219 90.8743 90.662 90.8743 90.0312C90.8743 89.4005 91.1683 88.8353 91.8135 88.8353C92.4588 88.8353 92.7528 89.4005 92.7528 90.0312C92.7528 90.662 92.4588 91.219 91.8135 91.219Z" fill="#949FB1"/>
<path d="M94.4522 89.6954C94.4522 89.1466 94.7911 88.8353 95.2526 88.8353C95.6998 88.8353 95.9714 89.1281 95.9714 89.6217V91.5876H96.4533V89.5889C96.4533 88.7861 96.0265 88.4011 95.3915 88.4011C94.9177 88.4011 94.6237 88.6141 94.4767 88.9336H94.4359V88.4421H93.9703V91.5876H94.4522V89.6954Z" fill="#949FB1"/>
<path d="M98.6488 91.6532C99.2859 91.6532 99.7514 91.3337 99.8985 90.8586L99.4329 90.7275C99.3104 91.0552 99.0266 91.219 98.6488 91.219C98.0832 91.219 97.6932 90.8524 97.6707 90.1787H99.9475V89.9739C99.9475 88.8025 99.2532 88.4011 98.5998 88.4011C97.7504 88.4011 97.1868 89.0728 97.1868 90.0394C97.1868 91.006 97.7422 91.6532 98.6488 91.6532ZM97.6707 89.7609C97.7034 89.2715 98.0485 88.8353 98.5998 88.8353C99.1225 88.8353 99.4574 89.2285 99.4574 89.7609H97.6707Z" fill="#949FB1"/>
<path d="M105.728 88.7042C105.573 87.8441 104.887 87.3362 104.046 87.3362C102.976 87.3362 102.2 88.1636 102.2 89.4906C102.2 90.8176 102.976 91.645 104.046 91.645C104.887 91.645 105.573 91.1371 105.728 90.277H105.222C105.099 90.8586 104.601 91.1699 104.046 91.1699C103.286 91.1699 102.69 90.5801 102.69 89.4906C102.69 88.4011 103.286 87.8113 104.046 87.8113C104.601 87.8113 105.099 88.1226 105.222 88.7042H105.728Z" fill="#949FB1"/>
<path d="M107.404 91.6613C107.951 91.6613 108.237 91.3665 108.335 91.1617H108.36V91.5876H108.841V89.5152C108.841 88.5158 108.082 88.4011 107.682 88.4011C107.208 88.4011 106.669 88.565 106.424 89.1384L106.881 89.3022C106.987 89.0728 107.239 88.8271 107.698 88.8271C108.141 88.8271 108.36 89.0626 108.36 89.466V89.4824C108.36 89.7159 108.123 89.6954 107.551 89.7691C106.969 89.8449 106.334 89.9739 106.334 90.6948C106.334 91.3091 106.808 91.6613 107.404 91.6613ZM107.477 91.2272C107.094 91.2272 106.816 91.0552 106.816 90.7193C106.816 90.3507 107.151 90.236 107.526 90.1869C107.731 90.1623 108.278 90.105 108.36 90.0067V90.449C108.36 90.8422 108.049 91.2272 107.477 91.2272Z" fill="#949FB1"/>
<path d="M110.203 87.3936H109.721V91.5876H110.203V87.3936Z" fill="#949FB1"/>
<path d="M111.567 87.3936H111.086V91.5876H111.567V87.3936Z" fill="#949FB1"/>
<path d="M127.152 85.6553C127.053 85.0343 126.568 84.6714 125.956 84.6714C125.207 84.6714 124.654 85.2342 124.654 86.1629C124.654 87.0915 125.204 87.6543 125.956 87.6543C126.592 87.6543 127.057 87.2545 127.152 86.6803L126.711 86.6789C126.636 87.0504 126.325 87.2545 125.959 87.2545C125.463 87.2545 125.088 86.8732 125.088 86.1629C125.088 85.4582 125.461 85.0712 125.96 85.0712C126.329 85.0712 126.639 85.2796 126.711 85.6553H127.152Z" fill="#949FB1"/>
<path d="M128.555 87.6586C129.167 87.6586 129.567 87.2092 129.567 86.5357C129.567 85.858 129.167 85.4086 128.555 85.4086C127.943 85.4086 127.543 85.858 127.543 86.5357C127.543 87.2092 127.943 87.6586 128.555 87.6586ZM128.557 87.3027C128.157 87.3027 127.97 86.9525 127.97 86.5343C127.97 86.1175 128.157 85.7631 128.557 85.7631C128.954 85.7631 129.141 86.1175 129.141 86.5343C129.141 86.9525 128.954 87.3027 128.557 87.3027Z" fill="#949FB1"/>
<path d="M130.462 86.3216C130.462 85.9743 130.674 85.7758 130.968 85.7758C131.255 85.7758 131.429 85.9644 131.429 86.2805V87.6146H131.852V86.2295C131.852 85.6907 131.556 85.4086 131.112 85.4086C130.786 85.4086 130.572 85.5603 130.472 85.7914H130.445V85.437H130.039V87.6146H130.462V86.3216Z" fill="#949FB1"/>
<path d="M132.841 86.3216C132.841 85.9743 133.053 85.7758 133.347 85.7758C133.634 85.7758 133.808 85.9644 133.808 86.2805V87.6146H134.231V86.2295C134.231 85.6907 133.935 85.4086 133.491 85.4086C133.165 85.4086 132.951 85.5603 132.851 85.7914H132.824V85.437H132.418V87.6146H132.841V86.3216Z" fill="#949FB1"/>
<path d="M135.733 87.6586C136.207 87.6586 136.542 87.4247 136.638 87.0702L136.238 86.9979C136.162 87.2035 135.978 87.3084 135.738 87.3084C135.376 87.3084 135.133 87.0731 135.121 86.6534H136.665V86.5031C136.665 85.7163 136.196 85.4086 135.704 85.4086C135.099 85.4086 134.7 85.8708 134.7 86.54C134.7 87.2162 135.093 87.6586 135.733 87.6586ZM135.123 86.3358C135.14 86.0268 135.363 85.7588 135.706 85.7588C136.034 85.7588 136.249 86.0027 136.251 86.3358H135.123Z" fill="#949FB1"/>
<path d="M138.048 87.6586C138.562 87.6586 138.894 87.3495 138.94 86.9256H138.529C138.475 87.161 138.293 87.2999 138.051 87.2999C137.694 87.2999 137.463 87.0007 137.463 86.5258C137.463 86.0594 137.698 85.7659 138.051 85.7659C138.32 85.7659 138.484 85.936 138.529 86.1402H138.94C138.895 85.7007 138.538 85.4086 138.044 85.4086C137.432 85.4086 137.036 85.8708 137.036 86.5357C137.036 87.1921 137.418 87.6586 138.048 87.6586Z" fill="#949FB1"/>
<path d="M140.406 85.437H139.961V84.9152H139.538V85.437H139.22V85.7772H139.538V87.0631C139.537 87.4587 139.838 87.6501 140.171 87.643C140.306 87.6416 140.396 87.6161 140.446 87.5976L140.369 87.2474C140.341 87.2531 140.289 87.2659 140.221 87.2659C140.084 87.2659 139.961 87.2205 139.961 86.9752V85.7772H140.406V85.437Z" fill="#949FB1"/>
<path d="M141.961 87.6146H142.398V86.5159H142.992C143.001 86.5159 143.01 86.5159 143.02 86.5159L143.608 87.6146H144.106L143.464 86.4393C143.819 86.3075 143.995 86.0112 143.995 85.6213C143.995 85.0868 143.664 84.7111 142.993 84.7111H141.961V87.6146ZM142.398 86.1388V85.0868H142.946C143.378 85.0868 143.556 85.2924 143.556 85.6213C143.556 85.9488 143.378 86.1388 142.952 86.1388H142.398Z" fill="#949FB1"/>
<path d="M145.125 87.6628C145.484 87.6628 145.686 87.4799 145.767 87.3169H145.783V87.6146H146.196V86.1685C146.196 85.5348 145.699 85.4086 145.354 85.4086C144.961 85.4086 144.599 85.5674 144.458 85.9644L144.855 86.0551C144.917 85.9006 145.075 85.7517 145.359 85.7517C145.632 85.7517 145.772 85.8949 145.772 86.1416V86.1515C145.772 86.3061 145.614 86.3032 145.224 86.3486C144.812 86.3968 144.391 86.5045 144.391 86.9993C144.391 87.4275 144.712 87.6628 145.125 87.6628ZM145.217 87.3226C144.978 87.3226 144.805 87.2148 144.805 87.005C144.805 86.7782 145.006 86.6974 145.251 86.6647C145.388 86.6463 145.713 86.6095 145.774 86.5485V86.8292C145.774 87.0872 145.569 87.3226 145.217 87.3226Z" fill="#949FB1"/>
<path d="M147.773 85.437H147.328V84.9152H146.905V85.437H146.587V85.7772H146.905V87.0631C146.903 87.4587 147.205 87.6501 147.538 87.643C147.672 87.6416 147.763 87.6161 147.812 87.5976L147.736 87.2474C147.708 87.2531 147.655 87.2659 147.588 87.2659C147.451 87.2659 147.328 87.2205 147.328 86.9752V85.7772H147.773V85.437Z" fill="#949FB1"/>
<path d="M149.153 87.6586C149.626 87.6586 149.961 87.4247 150.058 87.0702L149.658 86.9979C149.581 87.2035 149.397 87.3084 149.157 87.3084C148.795 87.3084 148.552 87.0731 148.541 86.6534H150.084V86.5031C150.084 85.7163 149.615 85.4086 149.123 85.4086C148.518 85.4086 148.12 85.8708 148.12 86.54C148.12 87.2162 148.512 87.6586 149.153 87.6586ZM148.542 86.3358C148.559 86.0268 148.782 85.7588 149.126 85.7588C149.454 85.7588 149.669 86.0027 149.67 86.3358H148.542Z" fill="#949FB1"/>
<path fill-rule="evenodd" clip-rule="evenodd" d="M159.558 92.9378C163.222 92.9378 166.192 89.9588 166.192 86.2839C166.192 82.609 163.222 79.6299 159.558 79.6299C155.894 79.6299 152.923 82.609 152.923 86.2839C152.923 89.9588 155.894 92.9378 159.558 92.9378ZM159.558 92.1614C162.794 92.1614 165.418 89.5299 165.418 86.2838C165.418 83.0376 162.794 80.4061 159.558 80.4061C156.321 80.4061 153.697 83.0376 153.697 86.2838C153.697 89.5299 156.321 92.1614 159.558 92.1614Z" fill="#D3DAE3"/>
<path d="M159.946 92.9266C163.429 92.7251 166.192 89.8281 166.192 86.2839C166.192 82.7397 163.429 79.8426 159.946 79.6411C159.732 79.6287 159.558 79.8037 159.558 80.018C159.558 80.2324 159.732 80.4048 159.946 80.4189C163.002 80.6193 165.418 83.1685 165.418 86.2839C165.418 89.3992 163.002 91.9484 159.946 92.1489C159.732 92.1629 159.558 92.3353 159.558 92.5497C159.558 92.7641 159.732 92.939 159.946 92.9266Z" fill="#1991EB"/>
<path d="M156.903 87.7768C157.485 87.7768 157.901 87.3642 157.899 86.7985C157.901 86.2371 157.51 85.8288 156.983 85.8288C156.768 85.8288 156.569 85.911 156.456 86.0216H156.439L156.531 85.2092H157.759V84.8335H156.167L156.005 86.2966L156.405 86.3562C156.514 86.2584 156.709 86.1917 156.884 86.1917C157.228 86.1946 157.476 86.4526 157.476 86.807C157.476 87.1558 157.235 87.4082 156.903 87.4082C156.623 87.4082 156.401 87.2295 156.378 86.98H155.954C155.971 87.4422 156.371 87.7768 156.903 87.7768Z" fill="#949FB1"/>
<path d="M159.514 84.8335H159.088L158.366 85.3071V85.7267L159.059 85.273H159.076V87.7371H159.514V84.8335Z" fill="#949FB1"/>
<path d="M161.808 87.1927C161.81 87.5202 162.015 87.7966 162.398 87.7966C162.776 87.7966 162.984 87.5202 162.984 87.1927V87.0395C162.984 86.7106 162.782 86.4356 162.398 86.4356C162.02 86.4356 161.81 86.712 161.808 87.0395V87.1927ZM160.352 85.5311C160.352 85.8586 160.558 86.135 160.942 86.135C161.319 86.135 161.528 85.86 161.527 85.5311V85.3779C161.528 85.049 161.325 84.774 160.942 84.774C160.566 84.774 160.352 85.049 160.352 85.3779V85.5311ZM160.471 87.7371H160.809L162.799 84.8335H162.461L160.471 87.7371ZM162.138 87.0395C162.139 86.8765 162.21 86.7191 162.398 86.7191C162.593 86.7191 162.653 86.8765 162.653 87.0395V87.1927C162.653 87.3557 162.587 87.5131 162.398 87.5131C162.205 87.5131 162.139 87.3543 162.138 87.1927V87.0395ZM160.683 85.3779C160.683 85.2163 160.754 85.0575 160.942 85.0575C161.137 85.0575 161.197 85.2149 161.197 85.3779V85.5311C161.197 85.6941 161.131 85.8515 160.942 85.8515C160.749 85.8515 160.683 85.6941 160.683 85.5311V85.3779Z" fill="#949FB1"/>
<defs>
<filter id="filter0_d_3063_15724" x="0" y="0" width="182" height="30" filterUnits="userSpaceOnUse" color-interpolation-filters="sRGB">
<feFlood flood-opacity="0" result="BackgroundImageFix"/>
<feColorMatrix in="SourceAlpha" type="matrix" values="0 0 0 0 0 0 0 0 0 0 0 0 0 0 0 0 0 0 127 0" result="hardAlpha"/>
<feOffset dy="1"/>
<feGaussianBlur stdDeviation="1.5"/>
<feColorMatrix type="matrix" values="0 0 0 0 0 0 0 0 0 0 0 0 0 0 0 0 0 0 0.1 0"/>
<feBlend mode="normal" in2="BackgroundImageFix" result="effect1_dropShadow_3063_15724"/>
<feBlend mode="normal" in="SourceGraphic" in2="effect1_dropShadow_3063_15724" result="shape"/>
</filter>
<filter id="filter1_d_3063_15724" x="26.5386" y="35.9316" width="182" height="30" filterUnits="userSpaceOnUse" color-interpolation-filters="sRGB">
<feFlood flood-opacity="0" result="BackgroundImageFix"/>
<feColorMatrix in="SourceAlpha" type="matrix" values="0 0 0 0 0 0 0 0 0 0 0 0 0 0 0 0 0 0 127 0" result="hardAlpha"/>
<feOffset dy="1"/>
<feGaussianBlur stdDeviation="1.5"/>
<feColorMatrix type="matrix" values="0 0 0 0 0 0 0 0 0 0 0 0 0 0 0 0 0 0 0.1 0"/>
<feBlend mode="normal" in2="BackgroundImageFix" result="effect1_dropShadow_3063_15724"/>
<feBlend mode="normal" in="SourceGraphic" in2="effect1_dropShadow_3063_15724" result="shape"/>
</filter>
<filter id="filter2_d_3063_15724" x="53.0769" y="71.863" width="182" height="30.244" filterUnits="userSpaceOnUse" color-interpolation-filters="sRGB">
<feFlood flood-opacity="0" result="BackgroundImageFix"/>
<feColorMatrix in="SourceAlpha" type="matrix" values="0 0 0 0 0 0 0 0 0 0 0 0 0 0 0 0 0 0 127 0" result="hardAlpha"/>
<feOffset dy="1"/>
<feGaussianBlur stdDeviation="1.5"/>
<feColorMatrix type="matrix" values="0 0 0 0 0 0 0 0 0 0 0 0 0 0 0 0 0 0 0.1 0"/>
<feBlend mode="normal" in2="BackgroundImageFix" result="effect1_dropShadow_3063_15724"/>
<feBlend mode="normal" in="SourceGraphic" in2="effect1_dropShadow_3063_15724" result="shape"/>
</filter>
</defs>
</svg>
