<svg width="118" height="84" viewBox="0 0 118 84" fill="none" xmlns="http://www.w3.org/2000/svg">
<g filter="url(#filter0_d_526_6841)">
<path d="M4 7C4 4.72183 5.84683 2.875 8.125 2.875H109.875C112.153 2.875 114 4.72183 114 7V73C114 75.2782 112.153 77.125 109.875 77.125H8.125C5.84683 77.125 4 75.2782 4 73V7Z" fill="white"/>
</g>
<path d="M17.75 11.125C17.75 12.6438 16.5188 13.875 15 13.875C13.4812 13.875 12.25 12.6438 12.25 11.125C12.25 9.60623 13.4812 8.37502 15 8.37502C16.5188 8.37502 17.75 9.60623 17.75 11.125Z" fill="#D3DAE3"/>
<path d="M27.375 11.125C27.375 12.6438 26.1438 13.875 24.625 13.875C23.1062 13.875 21.875 12.6438 21.875 11.125C21.875 9.60623 23.1062 8.37502 24.625 8.37502C26.1438 8.37502 27.375 9.60623 27.375 11.125Z" fill="#D3DAE3"/>
<path d="M37 11.125C37 12.6438 35.7688 13.875 34.25 13.875C32.7312 13.875 31.5 12.6438 31.5 11.125C31.5 9.60623 32.7312 8.37502 34.25 8.37502C35.7688 8.37502 37 9.60623 37 11.125Z" fill="#D3DAE3"/>
<rect x="12.25" y="34.5" width="5.5" height="5.5" rx="1.37963" fill="#D3DAE3"/>
<rect x="12.25" y="44.125" width="5.5" height="5.50001" rx="1.37963" fill="#D3DAE3"/>
<rect x="12.25" y="53.75" width="5.5" height="5.5" rx="1.37963" fill="#D3DAE3"/>
<rect x="12.25" y="63.375" width="5.5" height="5.5" rx="1.37963" fill="#D3DAE3"/>
<path d="M17.55 21.875H11.95C11.6317 21.875 11.3265 22.0014 11.1015 22.2265C10.8764 22.4515 10.75 22.7567 10.75 23.075V23.543C10.7499 23.7082 10.784 23.8716 10.85 24.023V24.047C10.9065 24.1754 10.9866 24.2921 11.086 24.391L13.55 26.839V29.475C13.5499 29.543 13.5671 29.6099 13.5999 29.6694C13.6328 29.7288 13.6804 29.779 13.738 29.815C13.8017 29.8544 13.8751 29.8752 13.95 29.875C14.0126 29.8746 14.0743 29.8596 14.13 29.831L15.73 29.031C15.796 28.9978 15.8514 28.9469 15.8903 28.8841C15.9291 28.8212 15.9498 28.7489 15.95 28.675V26.839L18.398 24.391C18.4974 24.2921 18.5775 24.1754 18.634 24.047V24.023C18.7055 23.8728 18.745 23.7093 18.75 23.543V23.075C18.75 22.7567 18.6236 22.4515 18.3985 22.2265C18.1735 22.0014 17.8683 21.875 17.55 21.875ZM15.266 26.391C15.2289 26.4284 15.1996 26.4727 15.1797 26.5214C15.1598 26.5702 15.1497 26.6224 15.15 26.675V28.427L14.35 28.827V26.675C14.3503 26.6224 14.3402 26.5702 14.3203 26.5214C14.3004 26.4727 14.2711 26.4284 14.234 26.391L12.114 24.275H17.386L15.266 26.391ZM17.95 23.475H11.55V23.075C11.55 22.9689 11.5921 22.8672 11.6672 22.7922C11.7422 22.7171 11.8439 22.675 11.95 22.675H17.55C17.6561 22.675 17.7578 22.7171 17.8328 22.7922C17.9079 22.8672 17.95 22.9689 17.95 23.075V23.475Z" fill="#1991EB"/>
<rect x="25.8634" y="23.4236" width="81.3981" height="6.89815" rx="1.37963" fill="white"/>
<circle cx="32.0718" cy="26.8727" r="2.06944" fill="#1991EB"/>
<rect x="38.2802" y="25.4931" width="11.037" height="2.75926" rx="1.37963" fill="#1991EB"/>
<rect x="56.2153" y="25.4931" width="11.037" height="2.75926" rx="1.37963" fill="#1991EB"/>
<rect x="74.1505" y="25.4931" width="11.037" height="2.75926" rx="1.37963" fill="#1991EB"/>
<rect x="92.0857" y="25.4931" width="11.037" height="2.75926" rx="1.37963" fill="#02C797"/>
<rect x="25.8635" y="33.081" width="81.3981" height="6.89815" rx="1.37963" fill="white"/>
<circle cx="32.0718" cy="36.5301" r="2.06944" fill="#1991EB"/>
<rect x="38.2802" y="35.1505" width="11.037" height="2.75926" rx="1.37963" fill="#1991EB"/>
<rect x="56.2154" y="35.1505" width="11.037" height="2.75926" rx="1.37963" fill="#1991EB"/>
<rect x="74.1505" y="35.1505" width="11.037" height="2.75926" rx="1.37963" fill="#1991EB"/>
<rect x="92.0857" y="35.1505" width="11.037" height="2.75926" rx="1.37963" fill="#02C797"/>
<rect x="25.8635" y="42.7384" width="81.3981" height="6.89815" rx="1.37963" fill="white"/>
<circle cx="32.0718" cy="46.1875" r="2.06944" fill="#1991EB"/>
<rect x="38.2802" y="44.8079" width="11.037" height="2.75926" rx="1.37963" fill="#1991EB"/>
<rect x="56.2154" y="44.8079" width="11.037" height="2.75926" rx="1.37963" fill="#1991EB"/>
<rect x="74.1505" y="44.8079" width="11.037" height="2.75926" rx="1.37963" fill="#1991EB"/>
<rect x="92.0857" y="44.8079" width="11.037" height="2.75926" rx="1.37963" fill="#02C797"/>
<rect x="25.8635" y="52.3958" width="81.3981" height="6.89815" rx="1.37963" fill="white"/>
<circle cx="32.0718" cy="55.8449" r="2.06944" fill="#1991EB"/>
<rect x="38.2802" y="54.4653" width="11.037" height="2.75926" rx="1.37963" fill="#1991EB"/>
<rect x="56.2154" y="54.4653" width="11.037" height="2.75926" rx="1.37963" fill="#1991EB"/>
<rect x="74.1505" y="54.4653" width="11.037" height="2.75926" rx="1.37963" fill="#1991EB"/>
<rect x="92.0857" y="54.4653" width="11.037" height="2.75926" rx="1.37963" fill="#02C797"/>
<rect x="25.8635" y="62.0532" width="81.3981" height="6.89815" rx="1.37963" fill="white"/>
<circle cx="32.0718" cy="65.5023" r="2.06944" fill="#1991EB"/>
<rect x="38.2802" y="64.1227" width="11.037" height="2.75926" rx="1.37963" fill="#1991EB"/>
<rect x="56.2154" y="64.1227" width="11.037" height="2.75926" rx="1.37963" fill="#1991EB"/>
<rect x="74.1505" y="64.1227" width="11.037" height="2.75926" rx="1.37963" fill="#1991EB"/>
<rect x="92.0857" y="64.1227" width="11.037" height="2.75926" rx="1.37963" fill="#02C797"/>
<defs>
<filter id="filter0_d_526_6841" x="0" y="0.875" width="118" height="82.25" filterUnits="userSpaceOnUse" color-interpolation-filters="sRGB">
<feFlood flood-opacity="0" result="BackgroundImageFix"/>
<feColorMatrix in="SourceAlpha" type="matrix" values="0 0 0 0 0 0 0 0 0 0 0 0 0 0 0 0 0 0 127 0" result="hardAlpha"/>
<feOffset dy="2"/>
<feGaussianBlur stdDeviation="2"/>
<feColorMatrix type="matrix" values="0 0 0 0 0 0 0 0 0 0 0 0 0 0 0 0 0 0 0.1 0"/>
<feBlend mode="normal" in2="BackgroundImageFix" result="effect1_dropShadow_526_6841"/>
<feBlend mode="normal" in="SourceGraphic" in2="effect1_dropShadow_526_6841" result="shape"/>
</filter>
</defs>
</svg>
