<svg width="118" height="84" viewBox="0 0 118 84" fill="none" xmlns="http://www.w3.org/2000/svg">
<g filter="url(#filter0_d_7_470)">
<path d="M4 6.22222C4 3.89036 5.84683 2 8.125 2H109.875C112.153 2 114 3.89035 114 6.22222V73.7778C114 76.1096 112.153 78 109.875 78H8.125C5.84683 78 4 76.1096 4 73.7778V6.22222Z" fill="white"/>
</g>
<path d="M32 14C32 13.4477 32.4477 13 33 13H45C45.5523 13 46 13.4477 46 14V16C46 16.5523 45.5523 17 45 17H33C32.4477 17 32 16.5523 32 16V14Z" fill="#D3DAE3"/>
<path d="M52 14C52 13.4477 52.4477 13 53 13H65C65.5523 13 66 13.4477 66 14V16C66 16.5523 65.5523 17 65 17H53C52.4477 17 52 16.5523 52 16V14Z" fill="#D3DAE3"/>
<path d="M72 14C72 13.4477 72.4477 13 73 13H85C85.5523 13 86 13.4477 86 14V16C86 16.5523 85.5523 17 85 17H73C72.4477 17 72 16.5523 72 16V14Z" fill="#D3DAE3"/>
<path d="M92 14C92 13.4477 92.4477 13 93 13H105C105.552 13 106 13.4477 106 14V16C106 16.5523 105.552 17 105 17H93C92.4477 17 92 16.5523 92 16V14Z" fill="#D3DAE3"/>
<path d="M12 26C12 25.4477 12.4477 25 13 25H20C20.5523 25 21 25.4477 21 26V28C21 28.5523 20.5523 29 20 29H13C12.4477 29 12 28.5523 12 28V26Z" fill="#D3DAE3"/>
<path d="M12 36C12 35.4477 12.4477 35 13 35H20C20.5523 35 21 35.4477 21 36V38C21 38.5523 20.5523 39 20 39H13C12.4477 39 12 38.5523 12 38V36Z" fill="#D3DAE3"/>
<path d="M12 46C12 45.4477 12.4477 45 13 45H20C20.5523 45 21 45.4477 21 46V48C21 48.5523 20.5523 49 20 49H13C12.4477 49 12 48.5523 12 48V46Z" fill="#D3DAE3"/>
<path d="M12 56C12 55.4477 12.4477 55 13 55H20C20.5523 55 21 55.4477 21 56V58C21 58.5523 20.5523 59 20 59H13C12.4477 59 12 58.5523 12 58V56Z" fill="#D3DAE3"/>
<path d="M12 66C12 65.4477 12.4477 65 13 65H20C20.5523 65 21 65.4477 21 66V68C21 68.5523 20.5523 69 20 69H13C12.4477 69 12 68.5523 12 68V66Z" fill="#D3DAE3"/>
<path d="M62.6375 39.5833H46.3625C45.4376 39.5833 44.5505 39.906 43.8965 40.4803C43.2424 41.0547 42.875 41.8336 42.875 42.6458V52.8542C42.875 53.6664 43.2424 54.4454 43.8965 55.0197C44.5505 55.594 45.4376 55.9167 46.3625 55.9167H62.6375C63.5624 55.9167 64.4495 55.594 65.1035 55.0197C65.7576 54.4454 66.125 53.6664 66.125 52.8542V42.6458C66.125 41.8336 65.7576 41.0547 65.1035 40.4803C64.4495 39.906 63.5624 39.5833 62.6375 39.5833ZM62.1609 41.625L55.3254 47.6275C55.2173 47.7232 55.0887 47.7991 54.9471 47.851C54.8054 47.9028 54.6535 47.9295 54.5 47.9295C54.3465 47.9295 54.1946 47.9028 54.0529 47.851C53.9113 47.7991 53.7827 47.7232 53.6746 47.6275L46.8391 41.625H62.1609ZM63.8 52.8542C63.8 53.1249 63.6775 53.3846 63.4595 53.576C63.2415 53.7675 62.9458 53.875 62.6375 53.875H46.3625C46.0542 53.875 45.7585 53.7675 45.5405 53.576C45.3225 53.3846 45.2 53.1249 45.2 52.8542V43.0644L52.0355 49.0669C52.6894 49.6404 53.5758 49.9625 54.5 49.9625C55.4242 49.9625 56.3106 49.6404 56.9645 49.0669L63.8 43.0644V52.8542Z" fill="#02C797"/>
<path fill-rule="evenodd" clip-rule="evenodd" d="M81.3502 51.9956C81.8274 51.4967 82.6187 51.4791 83.1175 51.9563L92.4121 60.8467C92.9109 61.3239 92.9285 62.1151 92.4513 62.614C91.9741 63.1129 91.1829 63.1305 90.684 62.6533L81.3895 53.7629C80.8906 53.2857 80.873 52.4944 81.3502 51.9956Z" fill="#1991EB"/>
<path d="M74.1713 55.6884C80.6437 55.6884 85.8905 50.4415 85.8905 43.9692C85.8905 37.4969 80.6437 32.25 74.1713 32.25C67.699 32.25 62.4521 37.4969 62.4521 43.9692C62.4521 50.4415 67.699 55.6884 74.1713 55.6884Z" fill="white"/>
<path fill-rule="evenodd" clip-rule="evenodd" d="M74.1713 33.5C68.3894 33.5 63.7021 38.1872 63.7021 43.9692C63.7021 49.7511 68.3894 54.4384 74.1713 54.4384C79.9533 54.4384 84.6405 49.7511 84.6405 43.9692C84.6405 38.1872 79.9533 33.5 74.1713 33.5ZM61.2021 43.9692C61.2021 36.8065 67.0086 31 74.1713 31C81.334 31 87.1405 36.8065 87.1405 43.9692C87.1405 51.1319 81.334 56.9384 74.1713 56.9384C67.0086 56.9384 61.2021 51.1319 61.2021 43.9692Z" fill="#1991EB"/>
<path fill-rule="evenodd" clip-rule="evenodd" d="M78.8273 46.5282L77.2367 44.9545C76.9944 44.7152 76.5831 44.7424 76.3222 45.0154L75.525 45.8501C74.1379 45.4038 72.3661 43.652 71.8886 42.2539L72.6859 41.4191C72.9468 41.1461 72.9625 40.7271 72.72 40.4869L71.1294 38.9133C70.887 38.6735 70.4758 38.7011 70.2149 38.9742L69.3816 39.8463C68.006 41.286 70.7059 44.871 71.8464 45.9985C72.987 47.1266 76.5849 49.7709 77.9606 48.3313L78.7939 47.4591C79.0548 47.1861 79.07 46.7668 78.8281 46.5269L78.8273 46.5282Z" fill="#1991EB"/>
<path d="M14.0835 11.9167C14.5437 11.9167 14.9168 11.5436 14.9168 11.0833C14.9168 10.6231 14.5437 10.25 14.0835 10.25C13.6232 10.25 13.2501 10.6231 13.2501 11.0833C13.2501 11.5436 13.6232 11.9167 14.0835 11.9167Z" fill="#0070CA"/>
<path d="M18.25 12.3333C17.9675 12.3333 17.69 12.3811 17.4282 12.4722C17.0755 12.595 16.7513 12.7964 16.4822 13.0655C16.0134 13.5344 15.75 14.1703 15.75 14.8333V17.7501H17.4167V14.8333C17.4167 14.6123 17.5045 14.4004 17.6607 14.2441C17.817 14.0878 18.029 14 18.25 14C18.471 14 18.683 14.0878 18.8393 14.2441C18.9956 14.4004 19.0834 14.6123 19.0834 14.8333V17.7501H20.7501V14.8333C20.7501 14.1703 20.4867 13.5344 20.0178 13.0655C19.549 12.5967 18.9131 12.3333 18.25 12.3333Z" fill="#0070CA"/>
<path d="M14.9167 12.75V17.75H13.25V12.75H14.9167Z" fill="#0070CA"/>
<defs>
<filter id="filter0_d_7_470" x="0" y="0" width="118" height="84" filterUnits="userSpaceOnUse" color-interpolation-filters="sRGB">
<feFlood flood-opacity="0" result="BackgroundImageFix"/>
<feColorMatrix in="SourceAlpha" type="matrix" values="0 0 0 0 0 0 0 0 0 0 0 0 0 0 0 0 0 0 127 0" result="hardAlpha"/>
<feOffset dy="2"/>
<feGaussianBlur stdDeviation="2"/>
<feColorMatrix type="matrix" values="0 0 0 0 0 0 0 0 0 0 0 0 0 0 0 0 0 0 0.1 0"/>
<feBlend mode="normal" in2="BackgroundImageFix" result="effect1_dropShadow_7_470"/>
<feBlend mode="normal" in="SourceGraphic" in2="effect1_dropShadow_7_470" result="shape"/>
</filter>
</defs>
</svg>
