<?xml version="1.0" standalone="no"?>
<!DOCTYPE svg PUBLIC "-//W3C//DTD SVG 20010904//EN"
 "http://www.w3.org/TR/2001/REC-SVG-20010904/DTD/svg10.dtd">
<svg version="1.0" xmlns="http://www.w3.org/2000/svg"
 width="260.000000pt" height="260.000000pt" viewBox="0 0 260.000000 260.000000"
 preserveAspectRatio="xMidYMid meet">

<g transform="translate(0.000000,260.000000) scale(0.100000,-0.100000)"
fill="#000000" stroke="none">
<path d="M1122 2419 c-563 -73 -992 -559 -992 -1125 0 -547 377 -1006 922
-1120 113 -24 325 -24 436 0 544 115 922 573 922 1116 0 685 -608 1218 -1288
1129z m420 -82 c360 -94 650 -370 761 -722 37 -119 48 -193 48 -329 0 -186
-38 -338 -125 -502 -59 -111 -116 -184 -224 -285 -160 -150 -353 -243 -575
-277 -49 -8 -60 -7 -65 6 -9 24 16 267 37 369 72 333 208 531 424 615 38 16
86 23 182 27 127 6 130 6 130 29 0 20 -38 44 -260 170 l-260 147 -38 295 c-21
162 -41 309 -45 325 -6 22 -13 -12 -27 -132 -10 -90 -22 -163 -27 -163 -4 0
-8 5 -8 11 0 33 -34 276 -40 287 -3 8 -12 -52 -20 -132 -7 -80 -16 -146 -20
-146 -4 0 -13 65 -20 145 -7 80 -16 143 -19 140 -2 -3 -21 -130 -41 -282 l-36
-276 -90 -46 c-50 -25 -108 -59 -130 -76 -116 -88 -241 -231 -345 -397 -44
-71 -61 -89 -89 -99 -70 -24 -167 -78 -245 -138 -43 -34 -82 -61 -86 -61 -10
0 -58 134 -75 209 -37 159 -34 357 7 514 27 102 104 269 165 354 156 219 395
374 669 433 130 29 351 22 487 -13z m13 -811 c42 -18 75 -69 75 -116 0 -68
-61 -130 -127 -130 -65 0 -133 67 -133 131 0 37 39 91 80 111 42 22 60 22 105
4z m350 -170 l90 -51 -164 -3 c-90 -1 -166 -1 -168 2 -3 2 3 19 12 37 13 24
16 47 12 86 l-6 54 67 -37 c37 -21 108 -60 157 -88z m-585 19 c0 -28 37 -89
68 -112 44 -32 103 -45 154 -33 24 5 76 10 117 10 l74 0 -59 -41 c-142 -98
-240 -258 -309 -509 l-32 -114 -21 46 c-34 78 -99 165 -194 260 l-90 90 7 44
c15 103 148 300 240 356 37 22 45 23 45 3z"/>
<path d="M1464 1486 c-44 -19 -62 -72 -39 -115 30 -59 89 -68 136 -22 36 36
38 79 7 115 -29 32 -64 39 -104 22z"/>
</g>
</svg>
